<svg width="535" height="568" viewBox="0 0 535 568" fill="none" xmlns="http://www.w3.org/2000/svg">
<path fill-rule="evenodd" clip-rule="evenodd" d="M368.821 508.277C368.165 507.469 369.805 506.676 368.381 505.973C366.916 506.596 367.342 509.397 368.821 508.277ZM338.204 474.587L337.295 473.704C334.739 471.048 336.797 476.118 338.204 474.587ZM407.322 542.811C408.246 543.198 409.187 545.818 410.244 544.629C410.196 543.389 408.549 541.617 407.322 542.811ZM371.272 508.785C371.825 510.175 374.735 509.593 373.671 508.218C372.882 508.986 372.081 507.354 371.272 508.785ZM413.025 545.457C409.956 545.713 413.353 548.675 413.025 545.457V545.457ZM379.316 515.582C380.147 516.22 380.876 517.439 381.742 516.917C380.658 516.205 381.534 515.351 381.301 514.613C380.688 515.211 380.022 514.734 379.316 515.582ZM418.839 550.086C417.622 550.949 416.553 549.739 415.419 550.683C417.179 551.542 415.957 552.571 417.289 553.524C418.077 552.756 421.039 553.249 420.326 551.532C419.119 552.064 419.67 550.724 418.839 550.086ZM397.326 533.092C398.575 533.966 399.056 534.945 399.196 535.934C400.505 534.819 401.732 533.625 400.829 532.576C399.562 535.095 398.593 530.572 397.326 533.092ZM388.817 524.819C388.669 526.892 393.27 526.591 393.113 528.996C393.994 527.977 394.747 528.369 395.624 527.515L390.915 522.937L388.899 524.899L388.817 524.819ZM355.278 489.312C356.592 488.032 351.793 486.435 352.852 487.976C355.731 488.388 352.569 488.895 351.362 489.427C353.33 491.852 353.888 493.076 356.652 491.671C356.079 490.943 354.577 489.994 355.278 489.312ZM402.586 536.331C400.458 539.207 405.472 539.307 404.866 542.47C406.248 541.767 409.756 541.085 408.372 539.057C406.376 540.357 404.481 538.344 402.586 536.331ZM350.456 485.647C352.016 487.504 351.648 485.612 352.441 484.678C352.441 484.678 353.623 484.974 352.967 484.166C351.177 484.302 352.334 485.426 350.456 485.647ZM329.284 463.016C329.036 462.775 328.268 462.88 328.758 463.528C330.501 462.153 329.84 467.137 332.093 465.747C331.85 465.34 331.184 464.863 331.71 464.351C331.958 464.592 332.376 464.828 332.732 464.321C330.904 462.886 330.253 461.912 329.397 462.102C329.475 462.348 329.805 462.67 329.284 463.016ZM326.746 462.594C331.831 460.376 326.125 460.626 326.746 462.594V462.594ZM336.362 468.021C335.701 467.379 335.551 466.721 335.483 466.144C333.41 467.198 334.261 467.173 332.504 469.045C333.908 470.411 335.378 469.623 336.915 469.412C336.352 468.353 333.442 468.935 334.519 467.082C335.097 467.645 335.666 468.538 336.362 468.021ZM413.667 541.135C412.768 539.92 411.761 539.453 410.802 540.226C411.892 540.774 411.295 543.605 413.198 542.556C412.868 542.234 413.053 541.733 413.667 541.135ZM397.441 529.282C396.317 529.895 393.743 530.632 394.9 531.757C396.895 530.457 398.057 531.416 398.901 528.826C399.567 529.303 400.233 529.779 400.774 528.771C399.89 527.059 398.56 528.836 397.441 529.282ZM402.348 530.131L403.257 531.015L404.221 530.076L403.312 529.192L402.348 530.131ZM390.887 521.034C391.719 521.672 392.527 520.241 393.399 519.554C392.753 518.414 389.688 518.504 390.504 519.639C394.012 518.956 388.304 522.103 390.887 521.034ZM399.044 526.918C398.553 526.271 399.337 525.668 400.038 524.986L398.633 523.62C397.246 524.488 397.234 527.716 399.044 526.918ZM332.647 461.51C333.142 461.992 332.787 462.499 333.03 462.906C333.736 462.058 334.865 461.28 333.611 460.572L332.647 461.51ZM387.728 513.017C387.738 512.686 386.484 511.978 386.324 511.652C386.246 511.406 387.112 510.884 386.354 510.658C383.915 512.55 387.523 514.182 387.728 513.017ZM380.976 508.499C381.973 509.297 382.896 509.684 383.84 509.408C383.355 508.595 383.633 507.842 382.466 507.048L380.976 508.499V508.499ZM317.063 445.335C319.208 444.693 316.399 441.962 315.688 442.976C316.514 443.779 317.088 444.507 317.063 445.335ZM282.913 413.156C283.278 412.318 283.556 411.565 283.494 410.822C282.715 411.258 281.438 414.11 282.913 413.156ZM425.678 548.892L426.587 549.775L427.551 548.837L426.642 547.953L425.678 548.892ZM401.059 524.955C401.555 525.437 401.199 525.944 401.442 526.351C402.148 525.503 403.278 524.725 402.023 524.017L401.059 524.955ZM314.667 443.006C315.971 442.057 316.512 441.048 315.774 440.16C314.892 441.179 314.439 442.102 314.667 443.006ZM396.703 522.767C397.332 521.672 398.558 520.478 398.336 519.408C396.721 519.373 394.7 521.501 396.703 522.767ZM365.477 489.508C365.422 491.33 367.485 490.608 368.837 490.899C367.773 489.523 366.679 489.142 365.477 489.508ZM339.608 475.953C340.099 476.6 339.806 477.85 341.013 477.318C340.522 476.671 340.032 476.023 341.068 475.496C340.973 478.644 343.106 475.602 344.458 475.893C343.927 476.571 342.973 477.178 343.464 477.825C344.536 476.139 345.424 477.685 346.388 476.746C346.14 476.505 346.248 475.758 346.914 476.234C349.257 477.49 349.658 481.119 346.768 481.038C347.387 480.275 346.05 479.487 345.394 478.679C344.693 479.362 344.007 479.547 343.409 479.648C344.365 481.771 345.404 478.348 346.273 480.556C345.742 481.234 344.788 481.841 345.279 482.489C346.288 480.059 347.111 483.759 348.173 482.404C347.925 482.163 348.033 481.415 348.699 481.892C350.091 480.858 348.924 480.065 350.744 478.935C348.907 477.831 350.216 476.717 348.461 475.692C349.543 473.674 349.941 474.573 350.507 472.736C349.583 472.349 348.642 469.729 347.585 470.918C347.623 472.49 345.677 472.133 345.953 474.277C344.115 473.172 344.693 473.734 343.557 471.947C341.949 474.477 341.969 473.815 339.608 475.953ZM328.524 454.432C328.096 454.527 329.182 452.344 330.013 452.981C328.123 450.803 326.553 454.904 328.524 454.432ZM441.235 563.164C441.653 563.4 442.144 564.048 442.67 563.536C442.009 562.893 443.133 562.281 442.725 561.713C441.859 562.235 441.44 562 441.235 563.164ZM393.431 515.663L394.34 516.547L395.392 515.523L394.483 514.639L393.431 515.663ZM288.233 414.406C289.229 415.205 288.781 415.962 289.607 416.766C291.087 415.646 291.633 414.472 290.218 413.438C289.605 414.035 288.919 414.221 288.233 414.406ZM355.594 478.875C355.944 478.534 356.29 478.358 356.615 478.845C357.146 478.168 357.677 477.49 356.671 477.023C356.145 477.535 355.103 478.228 355.594 478.875ZM342.293 465.943C342.643 465.602 342.989 465.426 343.314 465.913C343.845 465.236 344.376 464.558 343.37 464.091C342.844 464.603 341.802 465.296 342.293 465.943ZM422.842 544.258C422.379 545.513 420.126 546.903 421.705 548.098C423.097 547.064 421.931 546.271 423.751 545.142C422.001 543.952 424.264 542.23 421.881 542.3C423.346 541.678 422.92 538.877 421.44 539.996C422.319 541.874 419.715 543.605 422.842 544.258ZM308.699 432.258C307.955 431.535 309.853 430.652 309.28 429.924C307.815 430.546 306.538 433.398 308.699 432.258ZM358.022 477.314L358.931 478.198L359.895 477.259L358.986 476.376L358.022 477.314ZM348.604 468.158L349.513 469.041L350.477 468.103L349.568 467.219L348.604 468.158ZM308.325 441.786C307.339 440.656 308.819 439.537 309.432 438.94C311.628 436.641 308.075 438.814 309.487 437.117C311.518 434.658 313.388 437.499 315.388 436.034C314.732 435.225 316.372 434.432 314.948 433.729C314.076 434.417 313.273 435.682 312.437 435.21C314.773 433.9 312.139 430.998 310.567 432.369C311.48 433.087 311.115 433.925 309.986 434.703C310.056 432.384 308.288 434.587 307.064 432.886C305.694 435.988 304.463 431.721 303.118 433.995L305.514 436.324C306.215 435.641 306.405 434.974 306.508 434.391C307.334 435.195 308.083 435.752 308.934 435.727C307.62 437.007 309.369 438.197 307.797 439.567C307.354 440.159 304.68 438.583 305.812 440.536C307.905 438.819 306.49 443.412 308.325 441.786ZM364.744 482.827C365.575 483.464 366.309 484.518 367.113 483.253L366.204 482.37C365.678 482.882 365.177 482.566 364.744 482.827ZM430.503 549.66L432.403 551.507C433.207 550.242 436.652 548.817 434.474 547.723C433.129 549.997 431.915 547.963 430.503 549.66ZM319.194 439.563C320.473 439.442 321.695 438.413 320.713 437.118C320.007 437.966 318.708 438.749 319.194 439.563ZM264.668 386.55C265.286 385.787 268.058 386.946 267.179 385.069C266.561 385.832 263.789 384.672 264.668 386.55ZM214.11 334.496C214.937 335.299 215.7 335.359 216.479 334.923C215.74 334.034 214.889 334.059 214.11 334.496ZM432.957 547.271C433.653 546.754 434.922 546.965 434.446 545.82C433.921 546.332 432.481 546.126 432.957 547.271ZM237.3 357.895C238.364 359.27 239.591 358.076 240.72 357.298C239.568 356.007 238.424 357.282 237.3 357.895ZM298.903 415.913C298.698 417.078 302.891 416.209 300.889 414.944L300.363 415.456L298.903 415.913ZM267.705 384.557C268.531 385.36 269.295 385.421 270.073 384.984C269.247 384.181 268.566 384.201 267.705 384.557ZM366.73 481.858C368.009 481.738 369.231 480.709 368.25 479.413C366.888 479.453 365.748 480.563 366.73 481.858ZM293.811 409.939C294.677 409.417 295.409 407.74 294.279 408.518C293.413 409.04 292.599 410.637 293.811 409.939ZM395.234 506.673L396.143 507.556L397.107 506.618L396.198 505.734L395.234 506.673ZM224.665 339.812L223.701 340.751C224.069 342.644 226.771 340.495 225.687 339.782C225.254 340.043 224.991 340.299 224.665 339.812ZM274.78 392.459C275.704 392.845 276.645 395.466 277.701 394.276C276.292 393.076 281.61 391.596 278.838 390.436C277.404 390.064 276.099 391.013 274.78 392.459ZM235.485 353.231C236.464 351.796 237.613 350.355 236.126 348.909C234.209 350.455 233.4 351.886 235.485 353.231ZM194.842 310.816C194.14 311.499 193.95 312.166 193.847 312.748L194.756 313.632C196.081 312.021 198.497 313.687 197.298 311.157C196.416 312.176 195.575 311.87 194.842 310.816ZM229.487 343.477C228.27 344.341 228.736 345.816 228.35 347.317C229.329 345.882 232.609 344.296 231.886 342.91C231.335 344.25 229.75 343.221 229.487 343.477ZM189.609 303.853C187.754 306.142 190.288 306.729 191.893 307.096C192.769 306.243 192.877 305.495 192.473 304.762C191.602 305.449 190.596 304.983 189.609 303.853ZM263.227 372.359C262.824 371.626 260.15 370.049 260.858 371.932C263.174 371.284 261.794 374.718 260.743 375.742C258.482 374.567 260.648 373.262 258.898 372.072C255.876 373.568 258.92 374.14 259.308 375.37C259.381 375.782 257.999 376.484 258.84 376.791C259.273 376.53 259.867 376.595 260.275 377.162C262.042 374.959 263.895 375.566 263.284 373.267C261.722 374.306 263.222 372.524 263.227 372.359ZM209.024 322.729C210.328 321.78 210.869 320.771 210.131 319.883C209.337 320.816 207.181 321.79 209.024 322.729ZM449.44 553.406C450.053 552.809 450.719 553.286 451.425 552.437C450.76 551.96 450.191 551.067 449.495 551.584C450.074 552.146 449.032 552.839 449.44 553.406ZM258.871 370.17C260 369.392 261.089 369.939 262.321 368.579C261.587 367.524 260.711 368.378 259.952 368.152C260.483 367.474 261.014 366.796 260.007 366.329C258.693 367.609 259.081 368.839 258.871 370.17ZM217.293 327.699C217.994 327.016 218.557 328.076 219.166 327.644C218.592 326.916 219.128 326.073 218.725 325.34C217.451 325.295 216.224 326.489 217.293 327.699ZM169.815 280.685C169.764 282.342 172.21 283.015 173.73 280.57C172.574 279.445 171.212 279.486 169.815 280.685ZM219.722 326.138L221.126 327.504L222.09 326.565L220.686 325.199L219.722 326.138ZM239.246 341.37L240.155 342.253L241.119 341.314L240.21 340.431L239.246 341.37ZM182.821 286.509L183.729 287.393L184.693 286.454L183.785 285.57L182.821 286.509ZM225.182 322.75C225.207 321.922 223.51 321.806 223.252 321.897C221.792 322.353 225.162 323.413 225.182 322.75ZM184.836 284.546L185.745 285.43L186.709 284.491L185.8 283.608L184.836 284.546ZM153.553 256.007C154.266 257.723 157.283 256.393 156.477 254.928C155.39 257.111 154.639 253.823 153.553 256.007ZM221.382 319.055L222.291 319.939L223.255 319L222.346 318.117L221.382 319.055ZM199.542 298.844C200.59 300.716 201.817 299.522 202.931 299.241C201.888 297.203 200.743 298.478 199.542 298.844ZM191.503 291.881C192.302 290.782 193.528 289.587 192.114 288.553C189.638 288.874 188.706 291.549 191.503 291.881ZM169.748 268.853L170.657 269.737L171.62 268.798L170.712 267.915L169.748 268.853ZM188.141 287.759C188.656 287.579 191.225 287.007 190.156 285.797C189.728 285.892 187.072 286.549 188.141 287.759ZM187.322 283.894C187.41 283.809 187.891 284.788 187.292 284.888L185.802 286.339C185.104 289.752 190.437 282.147 187.322 283.894ZM223.838 319.397C224.499 320.039 224.649 320.697 224.717 321.274L226.206 319.824L225.298 318.94C224.772 319.452 224.271 319.136 223.838 319.397ZM199.602 296.856C200.478 296.003 200.586 295.255 200.183 294.522C198.821 294.562 197.511 295.676 199.602 296.856ZM177.378 275.249C178.25 274.562 178.21 275.887 177.761 276.645C176.472 277.096 175.125 276.64 173.873 278.662C174.829 280.786 175.869 277.362 176.737 279.571C177.897 277.799 180.077 275.997 179.364 274.28C178.911 275.204 176.237 273.628 177.378 275.249ZM204.892 299.1C204.366 299.612 205.104 300.501 205.801 299.984C205.836 298.824 203.134 295.345 201.505 295.807C201.532 297.71 203.555 298.312 204.892 299.1ZM198.808 292.162L199.717 293.046L200.681 292.107L199.772 291.224L198.808 292.162ZM228.219 320.757C228.923 322.805 231.902 319.904 229.709 319.307L228.219 320.757ZM180.656 276.56C179.677 277.995 176.397 279.581 177.12 280.967C178.993 280.912 178.43 279.852 179.662 278.492C181.169 279.275 181.659 279.923 183.988 281.675C184.361 283.402 181.501 282.327 183.407 284.009C185.38 280.641 187.332 283.563 189.338 281.931C189.413 279.447 187.32 281.163 186.003 279.712C184.754 278.839 186.997 277.78 186.088 276.896C185.047 277.589 185.598 276.249 184.684 275.531C183.272 277.227 182.008 276.851 180.656 276.56ZM161.299 258.592L163.694 260.922C164.488 259.988 165.329 260.294 166.063 261.349C168.341 259.13 165.602 259.707 165.652 258.05C164.606 258.909 163.657 259.35 162.728 259.13C162.876 257.056 165.497 257.559 164.799 255.345C161.982 255.676 162.473 256.323 161.299 258.592ZM170.246 266.439C170.737 267.087 172.171 267.458 172.615 266.866C172.702 266.78 171.871 266.143 172.645 265.872C173.331 265.686 176.267 267.007 175.569 264.793C173.944 265.089 172.149 265.39 170.246 266.439ZM166.208 256.545C166.704 257.027 166.349 257.533 166.591 257.94C167.297 257.092 168.427 256.314 167.172 255.606L166.208 256.545ZM157.088 251.599C157.03 250.691 158.763 249.647 157.173 248.783C156.292 249.802 155.538 249.411 154.662 250.264C156.495 251.534 156.542 252.774 157.441 253.989C159.251 253.191 161.597 251.55 160.976 249.582C159.454 249.295 159.339 253.106 157.088 251.599ZM154.394 245.058C155.221 245.862 155.984 245.922 156.763 245.485C156.024 244.597 155.173 244.622 154.394 245.058ZM201.292 288.779C201.3 285.717 198.047 289.206 201.292 288.779V288.779ZM188.514 278.232C188.777 277.976 189.21 277.715 189.536 278.202L190.5 277.263C189.266 275.893 188.632 277.152 188.6 275.416C186.955 276.374 188.544 277.238 188.514 278.232ZM180.531 269.446C181.249 270.998 183.588 266.791 181.495 268.508C180.706 269.276 178.478 269.838 180.531 269.446ZM171 261.203C171.533 263.256 174.513 260.355 173.511 259.723C172.63 260.742 171.794 260.27 171 261.203ZM198.018 284.572L198.926 285.456L199.89 284.517L198.982 283.634L198.018 284.572ZM174.773 262.996C175.289 262.815 177.857 262.243 176.788 261.033C176.36 261.128 173.704 261.786 174.773 262.996ZM159.134 248.643C160.501 248.437 162.889 248.201 161.675 246.168C161.041 247.428 158.162 247.016 159.134 248.643ZM198.954 287.358C200.293 285.25 202.822 286.003 201.438 283.975C200.892 285.15 197.963 286.395 198.954 287.358ZM162.524 249.04C163.748 250.741 164.975 249.547 164.919 251.369C168.117 249.703 163.683 247.268 162.524 249.04ZM178.22 264.301C179.53 263.187 180.757 261.992 179.853 260.943C178.373 262.062 177.234 263.171 178.22 264.301ZM220.409 303.443C223.063 305.682 217.6 306.34 219.768 307.765C220.864 305.251 225.792 305.437 223.829 302.846C222.665 304.784 221.538 302.665 220.409 303.443ZM206.582 291.023C207.816 292.394 209.141 290.783 210.498 290.908C210.25 290.667 210.007 290.261 210.528 289.914L209.619 289.031C208.63 290.798 207.644 289.668 206.582 291.023ZM193.339 279C194.212 281.043 195.204 282.007 197.665 282.183C194.387 286.5 193.812 283.041 191.381 281.871C190.504 282.725 189.886 283.488 189.861 284.316C191.085 286.018 192.415 284.241 193.746 285.195C192.442 286.143 191.901 287.152 192.64 288.041C194.485 286.083 196.32 284.457 198.13 283.659C198.336 282.494 198.877 281.485 198.742 280.331C195.93 280.496 201.573 279.503 198.797 278.508C196.884 279.889 195.144 278.368 193.339 279ZM180.972 266.123C182.281 265.009 183.508 263.814 182.604 262.765C181.805 263.865 178.964 265.024 180.972 266.123ZM175.271 260.581C176.245 259.311 177.282 258.784 178.308 258.588C176.538 258.061 177.084 256.887 175.882 257.253C176.786 258.302 173.857 259.547 175.271 260.581ZM169.273 250.827C168.787 250.014 169.065 249.261 167.899 248.468C165.974 247.449 168.024 249.954 168.777 250.345C168.252 250.857 167.711 251.866 168.747 251.339L169.273 250.827ZM201.493 282.153C201.105 280.923 201.671 279.086 199.593 280.306C201.368 280.667 200.183 283.267 201.493 282.153ZM158.924 238.719C159.42 239.201 159.064 239.708 159.307 240.114C160.013 239.266 161.142 238.488 159.888 237.78L158.924 238.719ZM257.919 337.014C258.908 335.247 259.894 336.376 260.956 335.021C258.803 333.098 256.71 334.815 257.919 337.014ZM227.164 305.065C228.16 305.864 229.084 306.25 230.028 305.974C229.031 305.176 229.479 304.418 228.653 303.615L227.164 305.065ZM199.708 276.496L201.113 277.861L202.077 276.922L200.672 275.557L199.708 276.496ZM250.929 326.296C250.268 325.653 248.949 327.099 249.439 327.746C251.042 325.382 252.319 328.158 253.853 325.217C252.975 323.339 251.976 325.437 250.929 326.296ZM172.34 247.841C173.409 249.05 174.586 249.512 175.7 249.231C174.616 248.518 173.51 245.737 172.34 247.841ZM169.884 247.499C170.751 246.977 171.509 247.203 172.395 246.018L170.991 244.653C169.687 245.602 169.233 246.525 169.884 247.499ZM213.945 292.214C214.601 293.022 212.961 293.815 214.386 294.518C215.763 293.981 215.337 291.18 213.945 292.214ZM217.891 291.105C216.396 292.721 214.288 294.934 215.79 295.883C215.955 296.044 218.432 295.723 218.715 294.804C218.224 294.157 217.305 293.604 217.836 292.927C219.816 292.124 218.885 289.172 217.921 290.111C218.247 290.598 218.242 290.763 217.891 291.105ZM197.485 271.265C197.868 272.66 196.656 273.358 197.4 274.081C198.061 274.723 197.35 275.737 197.84 276.385C199.202 276.345 202.254 273.855 200.85 272.49C198.659 274.623 199.723 270.371 197.485 271.265ZM186.49 263.644C187.171 263.624 187.396 261.797 187.484 261.711C189.489 260.08 187.359 260.226 186.462 261.741C187.226 261.802 186.067 263.574 186.49 263.644ZM220.785 291.019C221.481 290.502 222.751 290.713 222.275 289.569C221.579 290.086 220.31 289.875 220.785 291.019ZM216.985 287.325C217.688 289.373 220.668 286.471 218.475 285.874L216.985 287.325ZM298.468 365.695C299.171 367.743 302.151 364.841 299.958 364.244L298.468 365.695ZM166.871 234.678C166.808 233.935 165.198 233.734 164.94 233.825C162.697 234.884 166.976 236.827 166.871 234.678ZM175.876 243.433C175.796 240.457 172.631 243.86 175.876 243.433V243.433ZM287.18 353.696C288.459 353.576 289 352.567 288.7 351.252C288.081 352.015 286.694 352.883 287.18 353.696ZM247.885 314.469C248.589 316.517 251.568 313.616 249.375 313.018L247.885 314.469ZM231.019 306.938C230.138 307.957 229.685 308.881 229.912 309.784C231.605 310.065 233.63 307.771 234.296 308.248C234.131 308.088 233.312 309.85 233.828 309.669C234.859 309.308 235.333 307.721 236.369 307.194C234.619 306.005 235.083 304.75 235.463 303.414C236.242 302.978 238.448 300.347 236.457 301.482C235.143 302.762 233.731 304.458 232.456 304.413C233.107 305.387 234.397 304.935 233.861 305.779C232.198 304.503 232.982 309.528 231.019 306.938ZM202.891 269.699C202.648 269.292 202.75 268.71 203.359 268.278C203.111 268.037 202.693 267.801 202.337 268.308C202.074 268.564 201.807 268.986 202.307 269.302C200.224 270.688 201.381 271.812 202.891 269.699ZM190.731 269.643C189.236 271.259 187.826 270.059 186.317 272.173C187.581 272.549 188.878 274.663 190.202 273.051C190.991 272.283 189.143 271.51 189.762 270.747C191.088 271.867 192.35 269.513 193.677 270.632C193.409 271.054 192.713 271.571 193.209 272.053C195.865 271.395 195.4 269.919 194.842 268.694C194.924 268.775 193.041 269.161 192.969 268.75C192.804 268.589 193.685 267.57 193.437 267.329C194.138 266.646 194.701 267.706 195.31 267.274C195.222 267.359 194.406 266.225 194.927 265.878L196.361 266.25C197.042 266.23 197.651 265.798 198.347 265.281C196.674 264.337 198.319 263.379 197.411 262.495C195.906 264.443 194.369 264.653 193.027 264.031C195.012 263.062 192.829 262.133 192.091 261.245C191.169 263.589 188.005 261.365 188.615 263.664C189.91 263.047 191.169 263.589 192.501 264.543C190.5 266.009 188.6 264.161 186.57 266.621C187.055 267.434 186.777 268.187 187.944 268.98C188.928 267.379 189.562 266.119 191.419 266.561C189.181 267.454 192.128 268.443 190.731 269.643ZM224.701 290.904C224.005 291.421 224.413 291.988 224.233 292.325C225.582 289.885 225.905 293.269 223.239 294.257C224.308 295.467 225.514 294.935 226.628 294.654C225.151 292.877 229.625 293.987 228.148 292.21C227.37 292.646 226.518 292.671 225.78 291.783C227.843 291.06 225.632 288.229 226.248 290.362C225.97 291.115 224.789 290.819 224.701 290.904ZM183.714 257.023C183.956 257.429 184.622 257.906 184.097 258.418C183.265 257.781 182.532 256.726 181.728 257.991C182.389 258.634 182.539 259.291 182.607 259.869C183.936 258.092 185.161 259.794 186.553 258.76C186.923 257.756 184.823 256.907 185.616 255.974C186.883 253.454 187.902 256.32 189.067 254.383C188.406 253.74 188.255 253.082 188.188 252.505C186.31 252.726 184.61 255.507 183.714 257.023ZM250.199 316.718C251.814 316.753 253.882 315.865 252.244 313.761C250.765 314.881 249.913 314.906 250.199 316.718ZM204.119 276.862C203.243 277.716 202.625 278.479 202.6 279.307C203.979 281.501 205.469 280.05 207.011 279.674C205.028 277.746 210.321 277.094 211.51 274.328C210.777 273.274 209.9 274.127 209.142 273.901C208.043 273.685 207.898 272.862 207.682 274.358C206.087 273.66 204.465 271.059 202.888 272.595C205.231 273.851 204.608 274.779 206.718 275.296C205.647 276.983 205.211 280.14 204.119 276.862ZM199.09 266.004C199.689 265.904 199.213 264.759 199.559 264.584C199.729 264.579 200.885 265.703 200.993 264.955C201.086 264.704 199.551 262.018 198.567 263.62C198.48 263.705 199.125 264.845 198.95 265.015C199.013 265.758 197.718 266.375 199.09 266.004ZM189.034 258.273C189.797 258.333 193.778 256.064 191.518 254.89C191.059 255.979 188.13 257.224 189.034 258.273ZM287.325 348.892C287.821 349.374 287.466 349.881 287.708 350.288C288.414 349.44 289.544 348.662 288.289 347.954L287.325 348.892ZM205.755 270.608L204.846 269.724C205.377 269.047 206.331 268.439 205.84 267.792C205.139 268.474 204.576 267.415 203.967 267.847C204.628 268.489 204.027 271.486 205.755 270.608ZM273 338.887C274.32 337.441 276.831 335.961 275.597 334.59C274.195 335.955 271.684 337.436 273 338.887ZM225.254 286.667C223.968 284.223 223.607 284.895 221.98 282.461C220.222 284.333 221.414 284.298 222.916 285.247C222.648 285.668 221.952 286.185 222.448 286.667C223.144 286.15 223.767 285.222 224.433 285.699C223.908 286.211 224.558 287.184 225.254 286.667ZM206.25 271.09C206.949 273.303 210.98 269.378 208.792 268.615C207.565 269.81 208.123 271.035 206.25 271.09ZM202.535 264.579L203.444 265.462L204.408 264.524L203.499 263.64L202.535 264.579ZM270.337 331.352C271.641 330.403 272.182 329.394 271.444 328.506C270.562 329.525 268.324 330.418 270.337 331.352ZM257.59 314.183C256.753 313.711 256.981 314.615 256.13 314.64C255.449 314.66 254.107 314.038 254.67 315.097C255.454 314.494 256.265 315.795 257.096 316.432L258.586 314.982C258.25 314.826 258.008 314.419 257.59 314.183ZM240.926 302.757C241.555 301.663 242.781 300.468 242.559 299.399C240.914 300.358 238.938 300.995 240.926 302.757ZM211.045 272.852C211.743 275.066 215.774 271.141 213.586 270.377L211.045 272.852ZM186.103 245.532L187.012 246.416L187.976 245.477L187.067 244.594L186.103 245.532ZM173.134 252.534C171.143 253.669 171.669 253.157 171.614 254.979C170.365 254.105 169.138 255.3 170.124 256.429C172.913 254.196 169.976 258.503 171.994 259.271C174.846 257.78 172.678 256.354 173.569 255.004C174.235 255.481 174.853 254.718 175.555 254.035C177.119 255.727 178.789 253.94 180.379 254.804C180.111 255.225 180.179 255.803 180.762 256.199C179.968 257.133 177.725 258.192 179.655 259.045C180.95 258.428 181.165 256.932 182.139 255.662C183.463 254.051 185.789 253.072 185.674 251.255C184.813 251.611 184.039 251.882 183.276 251.822C183.807 251.144 184.761 250.537 184.27 249.889L182.78 251.34C182.057 249.955 179.971 248.609 180.47 246.195C181.822 246.486 184.027 243.856 183.859 246.591L186.401 244.117L183.592 241.386C182.107 242.671 184.198 243.851 181.521 245.171L179.125 242.841C177.12 244.473 179.711 245.969 177.025 247.62C176.887 249.362 179.213 248.383 177.961 250.406C177.089 251.094 176.371 249.543 175.562 250.973C176.724 251.932 176.611 252.846 175.477 253.789C174.733 253.066 173.897 252.594 173.134 252.534ZM218.645 280.242C220.26 280.277 221.687 278.083 221.129 276.858C219.855 276.813 217.411 278.871 218.645 280.242ZM212.182 269.012C211.521 268.369 212.645 267.757 212.237 267.19C210.695 267.566 210.532 270.136 212.182 269.012ZM215.982 272.707C215.967 273.204 217.061 273.585 216.365 274.102L214.349 276.065C212.955 274.368 211.332 277.395 209.965 277.601C212.329 278.193 211.675 280.116 213.796 280.302C213.528 280.723 212.832 281.24 213.327 281.722C215.37 281.662 214.044 280.543 214.847 279.278C217.323 278.957 216.805 276.406 219.374 275.834L217.474 273.987C217.669 273.154 217.98 268.51 216.042 270.719C217.384 271.341 215.914 272.129 215.982 272.707ZM302.73 354.149C303.226 354.631 302.87 355.138 303.113 355.545C303.819 354.696 304.948 353.918 303.694 353.211L302.73 354.149ZM206.511 262.476C206.944 262.215 209.238 259.499 207.505 260.543C205.164 262.019 205.294 263.339 206.511 262.476ZM482.89 527.265C482.374 527.446 481.833 528.455 481.4 528.716L480.905 528.234C480.048 528.424 478.972 530.277 479.385 530.678C481.175 530.543 479.915 530.001 481.4 528.716C483.443 528.656 484.432 526.889 482.89 527.265ZM290.305 345.991C292.037 344.947 290.448 344.084 291.412 343.145C292.113 342.462 293.257 341.187 291.88 341.724C290.901 343.16 288.9 344.626 290.305 345.991ZM219.842 274.414L221.247 275.779C222.726 274.66 223.272 273.485 221.858 272.451L219.842 274.414ZM185.197 241.752C186.326 240.974 185.5 240.171 185.778 239.418C186.196 239.654 186.794 239.554 187.237 238.961L185.833 237.596C184.261 238.966 184.556 240.447 185.197 241.752ZM474.764 520.387C475.63 519.865 476.361 518.189 475.232 518.967C474.536 519.484 473.634 521.165 474.764 520.387ZM237.792 293.912C238.676 295.624 239.732 294.434 240.714 295.729C239.91 296.994 236.465 298.42 238.643 299.514C242.303 296.593 241.538 293.802 241.881 290.895C240.882 292.994 239.665 293.857 237.792 293.912ZM215.546 270.237C216.535 268.47 217.522 269.6 218.583 268.244C216.946 266.141 214.993 268.846 215.546 270.237ZM482.48 523.967C481.418 525.322 477.96 524.348 478.479 526.898C480.299 525.769 482.024 527.787 483.884 525.332L482.48 523.967ZM272.057 322.281C272.408 321.94 272.754 321.764 273.079 322.251C273.61 321.574 274.141 320.896 273.134 320.429C272.521 321.026 271.567 321.634 272.057 322.281ZM211.333 266.14C212.462 265.362 213.531 266.572 214.783 264.549C214.205 263.987 214.736 263.31 213.904 262.672C213.494 265.001 211.043 264.494 211.333 266.14ZM243.638 294.65C244.942 293.702 245.483 292.693 244.745 291.804C243.44 292.753 242.9 293.762 243.638 294.65ZM234.901 291.101C235.789 292.647 236.355 290.81 237.299 290.534C237.985 290.348 238.976 291.312 239.698 289.966C240.151 289.043 240.181 288.049 239.783 287.15C237.354 288.711 237.66 289.861 234.901 291.101ZM227.826 283.199C228.687 282.843 229.461 282.572 230.224 282.632C229.956 283.054 230.024 283.631 230.607 284.027C231.839 282.667 232.726 281.483 232.678 280.243C231.481 280.443 227.653 280.473 227.826 283.199ZM225.713 274.324C225.218 273.842 225.573 273.335 225.33 272.928C222.874 272.587 224.662 275.348 225.713 274.324ZM474.323 518.083C475.332 515.654 476.156 519.353 477.217 517.998C475.885 517.044 477.102 516.181 475.347 515.157C474.125 516.186 473.672 517.109 474.323 518.083ZM255.042 302.838C253.366 304.791 252.077 305.243 251.536 306.252C251.268 306.673 252.785 307.125 251.919 307.647C251.832 307.732 251.005 306.929 250.898 307.677C250.79 308.425 251.616 309.228 251.338 309.981C251.065 310.569 250.121 310.845 249.848 311.432C250.912 312.807 252.089 313.269 253.238 311.829C253.717 310.077 251.468 311.302 252.36 309.951C254.681 309.138 254.375 307.989 254.43 306.166C255.705 306.212 257.102 305.012 258.376 305.057C257.715 304.415 257.565 303.757 257.498 303.18C256.208 303.632 254.981 304.826 255.042 302.838ZM485.371 526.778L486.775 528.144C487.997 527.115 487.94 526.206 486.861 525.328L485.371 526.778ZM467.476 505.458C464.089 507.792 469.367 507.637 467.476 505.458V505.458ZM201.276 258.409C203.184 257.195 202.621 256.135 203.76 255.026C205.375 255.061 208.432 258.033 208.469 259.604C209.779 258.49 211.006 257.296 210.953 256.221C209.982 254.595 208.998 256.196 208.089 255.312C208.062 253.41 204.086 249.886 202.358 250.764C203.18 251.733 201.024 252.707 201.252 253.61C201.903 254.584 203.28 254.047 202.656 254.976C201.66 254.178 200.661 256.276 199.762 255.061C198.012 253.871 199.239 252.676 197.366 252.732C196.435 255.407 195.361 254.363 193.365 255.663C194.414 257.535 195.671 255.347 196.755 256.06L198.655 257.907C198.387 258.329 197.691 258.846 198.187 259.328C200.791 257.596 199.835 255.473 201.276 258.409ZM214.924 259.911C216.513 260.775 218.073 262.632 219.688 262.667C218.098 261.804 216.609 257.627 214.924 259.911ZM483.121 519.645C486.809 518.626 482.778 516.924 483.121 519.645V519.645ZM226.793 269.575C228.355 268.536 228.468 267.622 226.878 266.759C225.15 267.637 226.823 268.581 226.793 269.575ZM313.072 352.438C314.069 353.236 314.993 353.623 315.937 353.347C315.276 352.704 315.125 352.047 315.058 351.469C314.357 352.152 313.758 352.252 313.072 352.438ZM286.44 327.568C287.322 326.549 287.775 325.626 287.547 324.722C286.753 325.656 284.598 326.629 286.44 327.568ZM242.407 284.756C241.518 283.21 245.807 284.822 243.927 282.312C242.813 282.593 239.59 285.087 242.407 284.756ZM235.475 274.947C234.819 274.139 236.459 273.346 235.034 272.643C232.806 273.205 233.913 275.986 235.475 274.947ZM297.078 332.965L298.482 334.331L299.446 333.392L298.042 332.027L297.078 332.965ZM257.753 294.731L258.662 295.615L259.626 294.676L258.717 293.793L257.753 294.731ZM264.888 300.645L265.797 301.529L266.761 300.59L265.852 299.707L264.888 300.645ZM255.388 291.408C256.301 292.126 257.258 294.25 258.252 292.317C257.353 291.102 256.429 290.716 255.388 291.408ZM495.716 522.171C492.236 524.756 497.514 524.601 495.716 522.171V522.171ZM298.598 330.521C299.088 331.168 299.935 331.309 300.528 331.374C302.731 331.64 300.047 330.395 299.124 330.009C299.206 330.089 299.747 329.08 299.154 329.015C298.643 329.03 299.046 329.763 299.124 330.009L298.598 330.521ZM297.662 327.735L296.257 326.369C295.839 326.133 295.348 325.486 294.823 325.997C295.834 326.299 296.693 328.839 297.662 327.735ZM279.213 310.651C278.217 309.853 278.665 309.095 277.839 308.291C275.756 309.677 277.641 312.021 279.213 310.651ZM316.027 350.365C315.206 349.396 317.361 348.423 317.134 347.519C318.924 347.384 317.92 349.647 319.998 348.428L317.602 346.098C315.694 347.313 313.118 350.947 316.027 350.365ZM293.423 324.466C295.807 324.396 293.168 321.66 292.545 322.589C292.545 322.589 293.764 324.456 293.423 324.466ZM497.732 520.208C498.686 519.601 499.657 521.227 500.656 519.129C500.02 517.658 496.891 519.902 497.732 520.208ZM502.554 523.873C501.94 524.47 499.614 525.449 501.59 524.812C502.245 525.62 505.4 522.548 504.569 521.91C502.614 521.885 503.167 523.276 502.554 523.873ZM494.695 522.201C494.069 520.399 496.272 520.665 496.74 519.244L496.796 517.422C496.563 516.684 495.128 516.313 495.917 515.545C496.185 515.123 496.881 514.606 496.385 514.124C495.484 515.806 492.264 515.404 492.88 517.537C493.143 517.281 493.576 517.02 493.901 517.507C493.2 518.19 494.289 518.737 493.846 519.329C492.572 519.284 490.649 520.996 491.801 522.286C493.764 519.249 493.731 523.139 494.695 522.201ZM469.781 491.157C470.484 493.205 473.464 490.303 471.27 489.706L469.781 491.157ZM351.484 373.072C352.641 374.197 354.108 376.305 355.315 375.773C352.934 372.947 352.293 371.642 349.118 369.749C349.381 369.493 349.319 368.75 348.623 369.267C348.5 370.512 350.328 371.948 351.484 373.072ZM500.216 516.825L501.62 518.19L502.584 517.252L501.18 515.886L500.216 516.825ZM505.946 521.373C506.544 521.273 506.177 519.38 506.94 519.441C507.193 519.516 507.323 520.836 507.323 520.836C508.375 519.812 509.654 519.692 507.934 517.508C506.985 517.95 505.884 520.63 504.897 519.501C505.428 518.823 506.382 518.216 505.891 517.568L503.876 519.531C504.537 520.173 505.213 520.319 505.806 520.384C505.45 520.891 504.91 521.9 505.946 521.373ZM510.874 504.678C508.691 503.749 512.209 502.735 509.938 501.892C509.237 502.574 508.551 502.76 507.953 502.86C510.068 503.212 509.079 504.979 510.874 504.678ZM512.89 502.715C513.385 503.197 513.03 503.704 513.273 504.111C513.979 503.262 515.108 502.484 513.854 501.776L512.89 502.715ZM516.194 505.928C517.031 506.4 517.912 505.381 518.593 505.361C517.364 503.825 522.348 504.919 521.134 502.886L520.17 503.825C518.648 503.539 519.214 501.701 518.3 500.984C518.052 500.743 517.439 501.34 516.866 500.612C516.783 500.532 517.499 499.352 517.334 499.191C517.096 498.619 516.23 499.141 515.899 498.82C514.162 500.03 516.522 503.518 517.218 503.001C516.971 502.761 517.078 502.013 517.744 502.489C518.055 503.473 517.601 504.397 516.637 505.336C516.713 502.851 515.436 505.702 514.212 504C512.624 505.867 514.91 506.214 512.196 505.963C512.857 506.605 511.733 507.218 512.141 507.785C513.358 506.922 514.294 509.708 515.531 508.182C515.21 507.529 515.318 506.781 516.194 505.928ZM520.836 498.675C516.52 500.788 521.174 501.561 520.836 498.675V498.675ZM503.647 487.76C504.111 486.505 506.023 485.125 505.718 483.976C504.671 484.834 505.237 482.997 504.283 483.604C504.584 484.919 503.264 486.365 503.647 487.76ZM516.13 491.2C515.925 492.364 520.118 491.496 518.116 490.231L517.59 490.743L516.13 491.2ZM502.476 475.878C503.09 475.281 503.756 475.758 504.462 474.91C503.796 474.433 503.227 473.539 502.531 474.056C503.192 474.699 502.068 475.311 502.476 475.878ZM522.472 492.42L523.38 493.304C524.577 493.103 525.103 492.591 524.374 491.371C523.844 492.049 523.095 491.491 522.472 492.42ZM509.256 476.672C509.264 473.61 506.011 477.098 509.256 476.672V476.672ZM502.121 470.758L504.517 473.087C505.208 472.736 506.322 472.455 505.043 472.575C503.293 471.386 504.287 469.453 502.121 470.758ZM500.774 470.301C501.037 470.045 501.47 469.784 501.796 470.271C502.326 469.594 502.857 468.916 501.851 468.449C501.237 469.046 500.284 469.654 500.774 470.301ZM517.297 486.366C517.983 486.18 522.074 485.894 519.838 483.891C519.185 485.814 516.331 484.574 517.297 486.366ZM525.977 489.007C525.914 488.264 524.305 488.063 524.047 488.153C521.891 489.127 526.082 491.155 525.977 489.007ZM511.041 482.329C511.95 483.213 511.659 481.566 512.005 481.391C512.092 481.305 513.181 481.853 513.439 481.762C514.383 481.486 515.027 479.895 515.95 480.282C515.372 479.719 515.903 479.042 515.072 478.404C514.078 480.337 508.97 480.487 511.041 482.329ZM508.903 474.282C509.434 473.605 510.388 472.998 509.897 472.35C509.464 472.611 508.933 473.289 508.438 472.807C510.067 472.345 510.06 469.78 508.493 470.984C509.139 472.124 506.978 473.263 508.903 474.282ZM527.524 488.465C527.772 488.706 528.015 489.112 527.494 489.459C527.912 489.695 528.403 490.342 528.929 489.83C528.598 489.509 528.438 489.183 528.959 488.836C529.207 489.077 529.975 488.972 529.485 488.324C528.696 489.092 528.133 488.033 527.524 488.465ZM524.603 486.647C524.953 486.306 525.299 486.13 525.624 486.617C526.202 487.18 525.672 487.857 526.503 488.495C529.798 486.412 523.889 484.931 524.603 486.647ZM516.093 478.374L517.057 477.435C517.826 477.33 518.715 478.876 519.426 477.862C517.949 476.085 514.932 477.415 516.093 478.374ZM505.158 468.765C505.819 469.408 506.495 469.554 507.088 469.619L508.052 468.68C506.968 467.967 507.845 467.114 507.612 466.376C506.385 467.571 507.031 468.71 505.158 468.765ZM482.67 439.057C482.505 438.896 484.625 439.082 484.543 439.002L484.16 437.606C483.907 437.531 483.454 438.454 483.196 438.545C483.025 438.55 482.014 438.248 482.67 439.057ZM524.803 480.021C525.7 478.505 523.604 477.491 522.958 476.352C522.793 476.191 523.592 475.092 523.427 474.931C523.111 474.113 521.914 474.313 521.496 474.077C520.347 475.518 521.071 476.904 521.877 478.369C525.089 476.206 522.4 480.754 523.309 481.638C523.742 481.377 524.273 480.699 524.768 481.181C525.429 481.823 524.245 484.424 526.638 484.022C528.298 482.567 527.152 481.111 526.258 479.73C525.747 479.745 525.299 480.503 524.803 480.021ZM505.772 462.541C506.205 462.28 506.798 462.345 507.206 462.912C508.18 461.643 509.242 460.287 507.322 459.102C506.776 460.277 505.549 461.472 505.772 462.541ZM519.744 470.157C516.269 472.576 521.547 472.421 519.744 470.157V470.157ZM513.108 461.829C513.974 461.307 514.705 459.63 513.576 460.408C512.88 460.925 511.978 462.607 513.108 461.829ZM504.245 451.166C502.26 446.507 502.182 451.889 504.245 451.166V451.166ZM484.232 401.523C486.287 403.863 487.837 400.424 486.773 399.049C484.395 398.953 486.698 401.534 484.232 401.523ZM455.109 366.217C455.936 367.02 456.699 367.081 457.478 366.644C456.647 366.006 455.913 364.952 455.109 366.217ZM469.787 378.612C470.22 378.351 472.514 375.635 470.781 376.679C468.523 378.235 468.571 379.475 469.787 378.612ZM462.798 367.894C463.041 368.301 462.938 368.883 462.33 369.315C463.486 370.439 464.61 369.827 465.664 371.534C467.237 370.163 464.628 366.434 462.798 367.894ZM470.429 374.29C469.112 372.839 471.135 367.814 467.65 370.565C470.426 371.559 468.025 375.023 470.429 374.29ZM465.54 358.793C466.093 360.184 468.952 361.258 467.908 359.22C467.475 359.481 466.882 359.416 466.474 358.849C467.005 358.171 467.958 357.564 467.468 356.916L465.54 358.793ZM473.636 366.665C474.595 365.892 474.28 365.074 473.196 364.361C473.902 363.513 475.031 362.735 473.777 362.027C471.518 363.583 472.577 365.124 473.636 366.665ZM471.183 363.427C470.184 359.898 468.326 365.083 466.273 365.475C466.671 366.373 468.379 366.158 469.137 366.384C470.236 366.6 471.295 368.141 472.557 365.786C471.936 363.819 468.759 364.822 469.748 363.056C470.254 363.206 470.745 363.854 471.183 363.427ZM475.271 360.41C475.972 359.728 476.658 359.542 477.257 359.442C476.771 358.628 477.049 357.876 475.882 357.082C474.485 358.282 475.049 359.341 475.271 360.41ZM480.419 364.562C481.996 363.026 484.394 362.459 483.015 360.265C481.766 359.392 480.381 362.991 479.069 361.374C479.775 360.526 480.905 359.748 479.65 359.04C476.618 360.867 480.561 362.655 480.419 364.562ZM445.614 309.066C446.513 310.28 447.519 310.747 448.478 309.974C447.579 308.76 446.656 308.373 445.614 309.066ZM496.513 349.855C496.365 346.301 493.861 350.347 496.513 349.855V349.855ZM451.135 303.69L452.044 304.573L453.008 303.635L452.099 302.751L451.135 303.69ZM496.598 347.039C497.522 347.426 498.463 350.046 499.52 348.856C499.56 347.531 497.995 345.839 496.598 347.039ZM522.183 372.767C523.956 370.398 523.3 375.217 525.573 373.164C526.232 371.076 521.563 370.8 522.183 372.767ZM401.632 247.715C402.335 249.763 405.315 246.862 403.121 246.265L401.632 247.715ZM521.065 361.96L521.974 362.843L522.938 361.905L522.029 361.021L521.065 361.96ZM499.522 345.96C500.008 346.773 499.73 347.526 500.897 348.319C502.186 347.868 502.391 346.703 503.408 346.839C504.001 346.904 505.516 344.625 504.928 344.394C504.232 344.911 504.081 344.254 504.019 343.511C502.514 345.458 501.075 345.252 499.522 345.96ZM434.785 279.097C435.651 278.575 436.383 276.898 435.253 277.676C434.475 278.113 433.656 279.875 434.785 279.097ZM513.054 351.272C513.632 351.834 513.101 352.512 513.933 353.149C514.809 352.296 514.917 351.548 514.514 350.815C514.075 351.242 513.575 350.926 513.054 351.272ZM442.091 279.378L442.999 280.262L443.963 279.323L443.055 278.439L442.091 279.378ZM513.169 347.462L514.574 348.827L515.538 347.889L514.133 346.523L513.169 347.462ZM424.494 262.269C426.324 260.809 425.771 259.418 426.069 258.003C424.579 259.453 422.579 260.919 424.494 262.269ZM433.432 259.193L434.341 260.076L435.305 259.138L434.396 258.254L433.432 259.193ZM448.368 265.87C444.888 268.455 450.166 268.3 448.368 265.87V265.87ZM443.184 243.266L444.093 244.149L445.057 243.21L444.148 242.327L443.184 243.266ZM379.386 176.292C380.283 174.776 381.091 173.345 380.027 171.97C379.389 173.395 377.048 174.871 379.386 176.292ZM339.003 125.262L337.599 123.897C337.181 123.661 336.69 123.013 336.164 123.525C337.006 123.832 337.947 126.452 339.003 125.262ZM177.709 233.449C177.709 233.449 178.415 232.601 177.739 232.455C176.81 232.234 175.583 233.429 174.845 232.54C174.261 232.144 174.802 231.135 173.936 231.657C174.011 234.799 170.055 230.612 168.501 234.217C169.637 236.004 169.059 235.441 170.896 236.546C170.693 240.441 166.257 240.903 163.39 242.89C163.335 244.713 164.479 243.438 165.786 245.22C165.255 245.897 164.301 246.505 164.792 247.152C166.695 246.103 166.782 246.018 167.771 244.251C169.241 243.463 170.691 243.338 172.185 241.721C171.943 241.315 171.277 240.838 171.802 240.326C172.586 239.724 173.422 240.195 174.201 239.759C173.896 238.609 174.436 237.6 175.833 236.401C175.698 235.246 175.218 234.267 175.423 233.103C177.193 233.63 176.244 234.071 178.345 234.92C177.561 235.522 178.743 235.819 178.728 236.315C178.795 236.893 177.243 237.6 178.672 238.138C181.349 236.818 179.599 235.628 179.809 234.298C180.475 234.775 181.044 235.668 181.74 235.151C181.697 233.746 178.881 234.077 177.709 233.449ZM178.086 282.759C176.384 282.809 174.664 286.252 174.055 286.684C173.968 286.769 172.398 285.243 172.183 286.739C174.366 287.668 170.848 288.682 173.119 289.525C175.232 287.146 175.432 286.147 178.114 284.661C178.054 286.649 179.198 285.374 180.482 285.088C179.418 283.713 179.02 282.814 178.086 282.759ZM263.905 380.862C262.981 380.476 262.04 377.855 260.983 379.045C261.639 379.853 259.999 380.646 261.424 381.349C262.305 380.33 263.131 381.133 263.905 380.862ZM272.764 394.421C273.64 393.568 273.748 392.82 273.345 392.087C272.386 392.86 272.449 393.603 272.764 394.421ZM312.183 446.389C312.163 447.052 314.424 448.227 314.609 447.725C314.824 446.229 312.193 446.058 312.183 446.389ZM527.582 483.746C528.073 484.394 527.387 484.579 526.618 484.685C527.605 485.814 528.543 485.704 529.512 484.6C528.929 484.203 528.278 483.229 527.582 483.746ZM161.025 233.94C161.33 235.089 160.071 234.547 159.505 236.384C160.181 236.53 160.774 236.595 161.435 237.238C162.877 234.547 162.625 234.472 165.496 232.319C166.027 231.641 165.108 231.089 164.618 230.441C167.479 228.619 164.383 226.973 167.244 225.151C166.598 224.011 163.652 223.022 165.812 221.883C168.441 224.95 169.22 224.513 170.521 226.461C170.682 226.787 166.971 225.738 169.557 227.4C169.64 227.48 170.842 227.114 170.992 227.771C169.713 227.892 168.573 229.001 168.451 230.246C169.287 230.718 170.091 229.453 170.962 228.765C172.712 229.955 171.485 231.15 173.358 231.095C174.239 230.076 172.139 229.227 172.422 228.308C173.2 227.872 176.24 228.61 175.343 230.126C176.34 230.924 177.974 230.297 179.229 231.005C180.235 231.471 180.706 232.782 181.625 233.334C182.543 233.886 183.823 233.766 184.489 234.243C185.738 235.116 186.544 236.582 187.793 237.456C189.042 238.329 190.813 238.856 192.062 239.73C194.23 241.156 195.522 243.435 197.792 244.278C195.837 244.253 194.635 244.619 194.019 242.486C193.494 242.998 194.247 243.389 194.402 243.881C193.418 245.483 192.447 243.856 191.508 243.967C190.89 244.73 192.737 245.503 191.949 246.271C191.145 247.536 190.324 246.567 189.58 245.844C188.591 247.611 188.964 249.338 187.975 251.105C188.574 251.004 189.93 251.13 190.374 250.537C191.255 249.518 189.763 248.238 191.894 248.093L193.328 248.464C194.452 247.852 192.469 245.924 194.848 246.02C194.875 247.922 194.297 247.36 196.252 247.385C197.507 248.093 196.46 248.952 195.671 249.72C196.88 251.918 198.245 248.982 199.587 249.604C200.376 248.836 199.096 248.957 199.091 249.122C198.776 248.304 199.71 248.359 199.56 247.702C199.492 247.125 198.175 245.674 199.645 244.886C202.882 247.521 206.377 250.067 209.614 252.702C210.445 253.34 210.878 253.079 211.544 253.556C213.537 255.152 214.839 257.1 216.749 258.616C218.081 259.57 219.768 260.017 221.017 260.89C223.103 262.236 224.657 264.259 226.748 265.439C227.667 265.991 231.527 267.698 231.457 270.017C232.04 270.414 232.751 269.4 233.33 269.962C237.032 274.074 241.446 277.171 245.694 280.108C247.196 281.057 249.763 283.381 252.416 285.62C253.247 286.258 253.681 285.997 254.346 286.474C256.004 287.914 257.398 289.611 259.056 291.052C259.887 291.69 260.32 291.429 260.986 291.906C262.395 293.105 263.79 294.802 265.282 296.082C266.113 296.72 266.546 296.459 267.212 296.936C268.704 298.216 270.016 299.832 271.508 301.113C272.339 301.75 272.772 301.489 273.438 301.966C275.514 303.643 277.151 305.746 279.139 307.508C279.882 308.231 280.403 307.885 281.069 308.362C283.48 310.194 285.598 313.277 288.174 315.27C289.005 315.907 289.438 315.646 290.104 316.123C292.923 318.523 295.211 321.6 298.2 323.995C299.031 324.632 299.464 324.371 300.13 324.848C303.941 328.212 307.225 332.087 311.035 335.451C311.779 336.174 312.3 335.827 312.966 336.304C316.29 338.855 318.992 342.334 321.971 345.06C322.962 346.023 325.325 346.616 327.206 349.126C328.352 350.582 331.374 354.713 334.28 357.028C335.359 357.906 336.396 357.379 337.615 359.247C338.426 360.547 338.183 360.14 340.011 361.576C341.591 362.771 342.902 364.387 344.307 365.753C345.463 366.877 346.177 368.594 348.137 368.454C349.554 366.591 344.642 365.908 344.863 364.247C345.078 362.751 344.114 363.69 343.458 362.881C342.802 362.073 343.07 361.652 342.58 361.004C341.924 360.196 340.922 359.563 340.184 358.675C338.96 356.973 339.373 357.374 337.375 355.944C335.96 354.909 335.149 353.609 334.596 352.219C334.518 351.973 333.595 351.586 333.687 351.335C333.805 350.256 333.046 350.03 332.313 348.976C331.657 348.168 331.925 347.746 331.434 347.098C331.6 347.259 325.979 344.693 326.199 343.032C326.199 343.032 326.415 341.536 325.816 341.636C324.878 341.747 325.481 341.481 324.908 340.753C324.252 339.945 322.827 339.242 323.533 338.393C322.449 337.68 321.325 338.293 320.174 337.003C318.997 336.541 319.368 335.537 319.295 335.125C319.217 334.879 318.294 334.493 318.386 334.242C318.504 333.162 318.221 334.081 316.486 332.394C314.999 330.948 314.987 328.549 312.16 329.211C312.097 328.468 310.678 327.6 310.786 326.852C310.908 325.607 310.022 326.792 309.381 325.486C309.304 325.24 309.819 325.06 309.411 324.493C306.865 321.506 302.942 319.056 300.406 315.737C300.241 315.577 299.493 315.019 299.498 314.854V314.854C299.42 314.608 298.496 314.221 298.589 313.97C298.712 312.725 298.268 313.318 296.689 312.123C296.441 311.882 291.371 307.976 291.484 307.062C291.592 306.315 291.076 306.495 290.079 305.697C289.914 305.536 287.168 303.548 287.271 302.966C287.271 302.966 287.486 301.47 286.888 301.57C285.35 301.781 286.314 300.843 285.483 300.205C284.817 299.728 283.873 300.004 282.562 298.388C281.988 297.66 281.853 296.505 281.625 295.602C281.042 295.205 280.331 296.219 279.753 295.657C276.453 292.278 273.123 289.893 269.641 289.748C268.995 288.608 267.838 287.484 266.336 286.535C265.5 286.063 264.989 286.078 264.406 285.681C263.745 285.039 263.175 281.414 261.071 283.462C260.523 281.906 259.029 277.895 256.392 277.89C255.902 277.242 256.856 276.635 257.387 275.957C255.161 273.623 252.167 271.394 251.303 269.02C250.332 267.393 249.268 271.645 248.379 270.099C246.789 269.235 248.522 268.191 248.464 267.282C247.06 265.917 245.59 266.705 244.053 266.916C243.092 264.958 242.426 264.481 239.757 262.739C238.42 261.951 237.924 261.469 235.926 260.038C235.761 259.877 235.188 259.149 235.018 259.154C233.48 259.365 234.444 258.427 233.613 257.789C233.2 257.387 232.592 257.819 232.179 257.417C231.27 256.534 229.916 253.512 227.5 251.845C226.333 251.052 224.894 250.846 223.201 250.565C221.874 249.445 221.223 248.471 219.897 247.352C219.065 246.714 218.632 246.975 217.966 246.498C215.716 244.992 214.336 242.798 212.266 240.956C211.522 240.233 211.002 240.579 210.336 240.103C209.009 238.983 207.78 237.447 206.535 236.408C205.704 235.77 205.271 236.031 204.605 235.554C201.694 233.406 199.741 230.484 197.005 228.165C195.926 227.286 194.666 226.744 192.679 224.982C192.679 224.982 191.982 225.499 191.657 225.012C191.574 224.931 192.27 224.414 191.687 224.018C191.186 223.701 190.753 223.962 190.253 223.646C188.926 222.527 187.784 220.905 186.452 219.951C184.207 218.28 180.914 217.466 179.292 214.866C177.863 214.329 176.448 213.294 174.881 214.499C174.786 212.019 171.969 212.35 170.555 211.316C167.891 209.408 165.5 206.913 162.924 204.92C161.097 203.485 156.776 200.136 153.864 197.987C152.615 197.114 150.957 195.673 148.629 193.921C147.55 193.042 146.797 192.651 144.799 191.22C143.55 190.347 142.052 189.232 139.564 187.154C139.399 186.993 138.743 186.185 138.655 186.27L138.129 186.782C137.546 186.385 137.664 185.306 137.746 185.387C136.745 184.754 135.543 185.12 134.882 184.478C132.724 182.721 130.844 180.211 128.686 178.454C127.525 177.495 127.179 177.67 125.352 176.235C124.52 175.597 124.087 175.858 123.421 175.381C121.258 173.79 119.446 171.857 117.195 170.351C115.192 169.086 111.377 165.888 108.631 163.9C107.381 163.026 105.724 161.585 103.396 159.833C102.565 159.196 102.219 159.371 101.466 158.98C100.299 158.187 99.906 157.122 98.6567 156.249C97.4075 155.375 95.5498 154.933 94.3882 153.975C93.557 153.337 94.1654 152.905 94.0052 152.579C93.5922 152.177 90.5679 150.942 89.7367 150.305C88.9055 149.667 88.2547 148.693 87.3409 147.975C86.0916 147.102 85.8337 147.192 84.0062 145.756C82.5091 144.642 79.4323 142.333 76.8461 140.671C75.6795 139.878 74.6881 138.914 72.5201 137.488C70.6049 136.138 68.9225 135.525 66.3514 133.366C65.1072 132.327 63.1619 131.971 62.0829 131.092C61.4169 130.615 58.8084 126.885 57.7869 126.915C56.6778 127.031 56.5327 126.207 55.361 125.58C54.8603 125.264 54.4271 125.525 53.9264 125.208C53.3431 124.812 51.065 121.403 50.1262 121.513L49.6004 122.025C49.3475 121.95 48.9495 121.052 48.6916 121.142C47.242 121.267 46.441 119.636 44.9188 119.35C43.99 119.129 43.6695 118.476 42.4928 118.014C41.3162 117.552 40.465 117.577 39.6288 117.105C39.1281 116.789 37.1804 113.702 36.3242 113.892L35.7984 114.404C35.5455 114.329 35.1475 113.431 34.8896 113.521C33.6929 113.722 33.8106 112.642 32.4637 112.185C31.5399 111.799 30.0953 111.759 29.0738 111.789C28.16 111.071 28.6959 110.227 27.6995 109.429C26.3676 108.475 26.0846 109.394 24.8354 108.52C22.8326 107.255 21.5358 105.142 19.6006 104.454C19.3477 104.379 18.9497 103.48 18.6918 103.57C17.3248 103.776 17.9533 102.682 15.7702 101.753C15.1819 101.522 14.8313 101.863 14.3106 102.21C8.91052 97.9827 3.90346 94.8199 2.03109 89.2478C2.82981 88.1485 1.58558 87.1093 3.66366 85.8896C1.59829 83.8815 2.25686 81.7933 0.44436 79.8606C2.17191 78.9822 0.411919 78.1237 1.55113 77.0144C2.78299 75.6541 1.51868 75.2776 2.65789 74.1683C2.74552 74.0829 3.17867 73.8219 3.18369 73.6563C3.37902 72.823 3.07364 71.6734 3.26897 70.8401C3.66967 68.8423 4.74132 67.1557 4.37842 65.0975C6.18357 64.4652 5.07714 61.6841 6.91975 62.6229C7.8061 61.4383 6.64448 60.4794 6.50935 59.3249C8.64261 56.283 8.73292 53.3012 11.1241 50.169C12.3532 51.7052 11.795 50.4803 13.1095 49.2003C13.8982 48.4323 14.4815 48.8289 15.0949 48.2316C15.4454 47.8903 15.2076 47.318 15.5632 46.811C17.4185 44.5221 20.4806 41.7012 22.5737 39.9845C23.445 39.2969 23.9457 39.6132 24.5591 39.0158C25.6107 37.9919 25.4605 37.3343 26.079 36.5713C26.7851 35.723 27.3684 36.1196 28.0644 35.6026C28.2397 35.4319 29.1361 33.916 29.5843 33.158C30.0324 32.4001 30.0525 31.7375 30.5783 31.2255C31.367 30.4575 31.8677 30.7738 32.5637 30.2568C34.9097 28.6155 36.2593 26.1759 38.6103 24.3689C39.3789 24.2636 41.0764 24.3791 42.0303 23.7718C42.3758 23.5961 42.7364 22.9235 42.9942 22.8331C43.3398 22.6575 44.2535 23.3754 44.4288 23.2047C45.8058 22.6677 45.558 22.4267 46.8273 22.6376C47.333 22.7883 47.338 22.6226 47.8488 22.6076C48.2719 22.6779 49.4686 22.4772 49.7215 22.5525C50.2272 22.7031 50.6202 23.7673 51.1259 23.918C51.3788 23.9933 51.5591 23.657 52.1474 23.8879C53.6545 24.6711 56.0955 25.5096 57.9331 26.6141C59.1048 27.2416 59.26 27.7336 60.359 27.9495C61.2053 28.0901 62.7799 29.4506 64.6276 30.2238C67.4218 27.8245 66.5581 25.4501 70.2912 22.9404C71.4505 21.1685 71.5883 19.4266 71.8963 17.6797C72.3445 16.9217 72.9854 18.2269 73.3309 18.0513C73.8466 17.8706 74.3099 16.6157 74.8206 16.6006C75.5016 16.5806 76.0649 17.6398 76.7509 17.4541C76.8836 15.8779 78.2082 14.2666 77.8302 12.7055C78.3861 11.1995 79.3574 12.826 79.7029 12.6504C80.4765 12.3793 80.9398 11.1244 81.7184 10.6878C82.4971 10.2511 84.132 9.62371 85.7194 7.75644C86.9513 6.39615 88.4661 4.11724 91.2402 2.38057C92.9952 3.40473 94.8655 0.618846 96.5904 2.63693C97.7296 1.52763 98.9063 1.98953 100.066 0.217606C101.923 0.659475 103.966 0.599378 105.881 1.94984C106.284 2.68276 107.006 1.3375 107.341 1.49313C107.676 1.64877 107.914 2.22105 108.25 2.37668C109.086 2.8486 110.763 3.62678 112.023 4.16901C112.275 4.24432 112.674 5.1429 112.931 5.05256C114.128 4.85185 115.445 6.30267 116.704 6.84489C116.957 6.92021 117.355 7.81878 117.613 7.72844C118.552 7.61807 118.537 8.11503 119.543 8.58194C119.879 8.73758 120.482 8.47157 120.565 8.5519C122.067 9.50074 122.883 10.6353 124.395 11.2528C124.648 11.3281 125.046 12.2267 125.304 12.1364C126.413 12.021 126.646 12.7589 127.73 13.4718C129.567 14.5763 131.921 15.5001 133.929 16.5996C134.347 16.8355 134.502 17.3275 134.837 17.4831C136.009 18.1107 140.593 21.2032 142.523 22.0567C142.776 22.132 143.174 23.0306 143.432 22.9402C144.711 22.8199 147.763 25.9575 149.601 27.0619C149.518 26.9816 151.939 28.4827 152.026 28.3974C152.965 28.287 152.95 28.784 153.957 29.2509C154.375 29.4868 157.049 31.0632 158.225 31.5251C158.478 31.6005 158.876 32.499 159.134 32.4087C160.073 32.2983 160.058 32.7953 161.064 33.2622C161.735 33.5735 162.484 34.1307 163.49 34.5976C164.161 34.9089 164.91 35.4662 165.916 35.9331C166.587 36.2443 167.336 36.8016 168.342 37.2685C169.013 37.5798 171.599 39.2415 173.106 40.0247C173.359 40.1 173.845 40.9133 174.015 40.9083C174.954 40.7979 175.114 41.1242 175.945 41.7618C176.11 41.9224 176.766 42.7306 176.854 42.6453C177.282 42.55 178.722 42.7559 179.776 44.4627C180.276 44.779 180.797 44.4326 181.21 44.8342C184.097 42.184 185.767 40.397 189.242 37.9777C189.33 37.8924 189.743 38.294 190.264 37.9476C190.702 37.521 191.238 36.6777 191.753 36.497C192.011 36.4067 193.539 36.5273 193.626 36.4419C194.668 35.7493 195.734 34.2283 196.606 33.5407C197.565 32.7677 198.07 32.9183 199.117 32.06C200.076 31.287 200.199 30.0421 201.162 29.1034C201.951 28.3355 202.369 28.5714 203.148 28.1347C204.798 27.0104 206.117 25.5648 208.088 25.0931C208.346 25.0027 209.82 24.049 210.073 24.1244C210.666 24.1897 212.637 23.7179 214.019 23.0152C214.68 23.6578 215.191 23.6428 215.949 23.8687C217.043 24.2503 218.225 24.5466 219.835 24.7475C220.258 24.8178 221.625 24.6121 221.707 24.6924C222.296 24.9233 222.611 25.7416 223.112 26.0579C223.783 26.3691 225.14 26.4947 225.976 26.9666C227.235 27.5089 228.056 28.4778 228.898 28.784C229.821 29.1706 231.013 29.1355 231.762 29.6928C233.764 30.9579 235.154 32.8204 237.492 34.2411C237.993 34.5574 238.669 34.703 239.422 35.0946C239.675 35.17 240.161 35.9832 240.331 35.9782C241.44 35.8628 241.585 36.6861 242.757 37.3136C243.258 37.6299 243.691 37.3689 244.192 37.6852C246.107 39.0357 247.749 40.9734 249.922 42.2335C250.423 42.5498 250.856 42.2888 251.357 42.6051C252.358 43.2377 252.999 44.5429 254.166 45.3361C255.415 46.2096 256.747 47.1635 258.987 49.0009C260.066 49.8794 261.563 50.9939 263.809 52.6657C264.888 53.5442 265.642 53.9358 267.639 55.3666C268.806 56.1598 269.802 56.958 271.966 58.5495C273.045 59.428 274.454 60.6278 276.787 62.2143C278.037 63.0878 279.781 64.4433 282.022 66.2807C282.187 66.4413 282.843 67.2496 282.931 67.1642L283.632 66.4816C283.962 66.8029 283.684 67.5558 283.602 67.4755C284.103 67.7918 285.109 68.2587 286.028 68.8109C290.033 71.3412 295.481 76.8082 300.293 80.8043C301.372 81.6828 302.543 82.3104 304.619 83.9871C304.784 84.1478 305.44 84.956 305.527 84.8707C306.637 84.7553 305.688 85.197 306.436 85.7542C306.849 86.1558 307.37 85.8095 307.871 86.1258C308.537 86.6027 309.11 87.3306 309.771 87.9732C310.602 88.6108 310.948 88.4351 311.701 88.8267C311.536 88.6661 311.341 89.4993 311.671 89.8206C311.754 89.901 312.192 89.4743 312.693 89.7906C312.94 90.0316 313.441 90.3478 313.601 90.6741C314.33 91.894 314.34 91.5627 316.41 93.4051C316.741 93.7264 318.946 96.7234 319.715 96.618C321.252 96.4073 320.376 97.2606 321.119 97.9835C321.45 98.3048 322.053 98.0388 322.554 98.3551C324.965 100.187 326.927 102.778 329.163 104.781C329.906 105.504 330.427 105.157 331.093 105.634C334.753 108.34 337.692 112.392 341.007 115.273C340.842 115.112 348.455 119.274 348.142 121.187C348.029 122.101 348.715 121.915 350.538 123.516C353.026 125.595 355.893 129.234 359.047 131.79C359.295 132.031 362.086 132.528 361.969 133.607C361.861 134.355 362.377 134.174 363.373 134.972C366.868 137.518 371.975 142.995 375.683 146.941C376.013 147.262 376.431 147.498 376.591 147.824C376.752 148.15 376.644 148.898 376.561 148.818C377.387 149.621 378.078 149.27 378.987 150.153C380.144 151.278 380.697 152.668 381.766 153.878C382.014 154.119 382.339 154.606 382.675 154.762C383.929 155.47 383.594 155.314 385.071 157.091C384.988 157.011 385.849 156.655 386.092 157.061C386.175 157.142 385.737 157.568 386.062 158.055C389.352 161.765 394.086 165.515 397.463 169.14C398.206 169.863 397.851 170.37 398.341 171.017C401.043 174.496 405.992 176.75 408.255 180.656C408.333 180.902 408.308 181.73 408.225 181.65C408.969 182.373 410.403 182.744 411.147 183.467C411.803 184.275 411.535 184.697 412.025 185.345C412.273 185.586 415.933 188.292 415.826 189.039C415.62 190.204 417.153 190.159 418.635 191.77C419.378 192.493 419.023 193 419.513 193.648C421.155 195.586 423.494 197.006 425.214 199.19C425.87 199.998 425.602 200.42 426.092 201.068C427.244 202.358 428.043 201.259 427.992 202.915C427.977 203.412 431.715 206.364 432.701 207.494C433.357 208.302 433.089 208.723 433.58 209.371C434.814 210.742 436.559 212.097 437.876 213.548C438.532 214.356 438.264 214.778 438.755 215.425C441.544 218.819 445.189 222.022 448.143 225.576C449.372 227.112 450.684 228.729 451.913 230.265C452.569 231.073 452.301 231.495 452.792 232.142C453.86 233.352 455.44 234.547 456.592 235.837C457.496 236.886 458.885 238.749 460.775 240.927C461.431 241.736 461.163 242.157 461.654 242.805C463.286 245.074 465.692 247.072 467.324 249.341C468.223 250.556 469.705 252.167 471.507 254.432C472.246 255.32 473.78 258.006 474.839 259.547C475.082 259.954 476.754 260.897 476.739 261.394C476.689 263.051 477.333 261.46 478.64 263.242C478.557 263.161 478.449 263.909 478.609 264.236C478.852 264.642 479.358 264.793 479.518 265.119C480.329 266.419 481.155 267.223 482.793 269.326C483.449 270.134 483.268 270.471 483.671 271.204C485.541 274.045 489.635 276.49 487.882 278.196C488.766 279.908 489.822 278.719 490.804 280.014C489.587 280.877 488.07 280.425 486.362 280.641C485.851 280.656 486.007 281.148 485.341 280.671C485.175 280.51 483.638 280.721 483.468 280.726C483.298 280.731 481.342 280.706 480.574 280.811C480.233 280.821 479.863 281.825 479.61 281.75C476.638 281.589 476.13 284.335 474.089 287.126C474.239 287.783 476.009 288.311 475.989 288.973C475.954 290.133 476.159 288.968 477.889 290.821C478.545 291.629 478.277 292.051 478.768 292.698C479.424 293.506 481.004 294.701 481.577 295.429C482.718 297.051 482.884 297.211 484.881 298.642C484.716 298.481 484.341 299.651 484.851 299.636C486.729 299.415 486.761 301.152 487.66 302.367C490.609 306.087 495.116 308.933 498.565 312.97C499.221 313.778 498.953 314.199 499.444 314.847C501.174 316.699 502.836 317.975 504.649 319.907C505.305 320.716 505.037 321.137 505.527 321.785C506.426 323 507.846 323.868 508.832 324.998C509.488 325.806 509.22 326.228 509.711 326.875C511.596 329.22 514.002 331.218 515.794 333.813C516.693 335.028 518.175 336.639 519.977 338.903C520.964 340.033 520.783 340.369 522.26 342.146C523.407 343.602 524.115 345.485 525.097 346.78C526.238 348.401 528.256 349.17 527.933 351.413C529.766 352.684 529.813 353.923 530.712 355.138L528.696 357.101C528.739 358.506 528.24 360.921 530.541 360.771C530.984 360.178 529.983 359.546 530.596 358.948C531.04 358.356 530.364 358.21 530.101 358.466C529.362 357.578 529.903 356.569 531.207 355.62C531.275 356.197 533.21 356.885 533.108 357.468C533.093 357.965 532.499 357.899 533.078 358.462C533.656 359.024 529.943 360.871 533.46 359.857C534.422 361.815 531.568 360.575 530.949 361.338C529.109 363.13 531.525 364.796 528.323 366.629C529.459 368.416 530.603 367.141 531.657 368.847C530.528 369.625 529.459 368.416 528.207 370.439C527.419 371.207 528.698 371.086 528.703 370.92C529.096 371.985 527.894 372.351 527.243 371.377C526.858 372.878 530.345 372.858 527.128 375.187L529.524 377.517C526.692 378.345 527.153 379.986 525.988 381.924C524.709 382.044 523.5 379.845 522.103 381.045C521.502 378.415 526.136 379.851 525.608 377.632C525.107 377.315 524.587 377.662 524.174 377.26C523.342 376.623 522.566 379.79 520.668 380.673C519.94 379.454 521.249 378.339 519.294 378.314C518.323 376.688 517.258 380.939 516.37 379.393C514.61 378.535 516.703 376.818 516.981 376.065C517.356 374.895 517.649 373.646 517.592 372.737C516.455 370.95 515.261 373.881 514.232 371.346C513.258 372.616 512.222 373.143 511.195 373.339C508.894 373.489 512.494 372.556 513.211 371.376C512.074 369.589 510.93 370.864 509.876 369.157C510.514 367.732 510.389 366.246 512.472 364.86C512.668 364.027 511.924 363.304 513.053 362.526C514.102 364.399 515.329 363.204 516.413 363.917C517.45 363.39 516.711 362.501 517.407 361.984C517.582 361.814 519.28 361.929 519.28 361.929C519.976 361.412 519.716 358.772 521.821 359.455C523.549 358.576 520.787 357.085 520.943 357.577C520.642 356.262 521.343 355.579 521.554 354.249C519.959 353.551 521.649 356.729 519.07 357.632C518.306 357.572 517.45 357.763 516.671 358.199C515.943 356.98 512.919 355.744 513.893 354.475C512.984 353.591 511.912 355.278 511.028 353.566C511.482 352.642 511.512 351.648 511.114 350.75C510.618 350.268 510.17 351.026 509.654 351.206C508.735 350.654 509.354 349.891 508.775 349.329C507.949 348.526 506.207 349.901 506.35 347.993C505.378 346.367 504.314 350.619 503.425 349.072C502.632 350.006 501.795 349.534 500.914 350.553C501.89 352.014 502.824 352.069 503.808 350.468C504.314 350.619 503.325 352.386 502.814 352.401L502.318 351.919C500.23 353.47 498.653 355.006 496.357 354.99C492.774 358.158 496.227 353.67 497.877 352.546C499.269 351.512 495.466 350.713 497.962 349.73C495.857 349.047 497.036 352.24 495.479 353.113C493.295 352.184 494.928 348.826 492.7 349.388C492.394 348.238 493.616 347.209 494.332 346.03C492.63 346.08 491.899 347.757 490.444 348.048C489.588 348.238 488.726 348.595 487.933 349.528C486.746 349.398 485.76 348.268 484.543 349.131C482.542 350.597 486.811 352.871 483.406 352.972C484.523 355.421 485.767 350.833 486.796 353.368C485.92 354.222 485.812 354.97 486.215 355.703C484.317 356.586 483.616 357.269 482.71 359.116C484.192 360.727 484.875 357.811 486.16 357.525C486.33 357.52 486.986 358.328 487.069 358.408C487.739 358.72 488.781 358.027 489.467 357.841C490.624 358.966 489.995 360.06 491.75 361.084C488.593 361.425 490.365 364.683 491.166 366.315C489.336 367.775 487.571 367.083 485.701 369.868C485.123 369.306 486.525 367.941 486.282 367.534C485.476 366.068 483.353 368.779 481.87 367.168C483.861 366.033 483.385 364.889 483.503 363.809C482.356 362.354 482.819 366.726 480.992 365.29C480.776 366.786 482.351 368.146 482.311 369.472C481.259 370.496 480.313 368.041 479.389 367.654C478.718 367.343 478.095 368.272 477.517 367.709C476.515 367.077 476.958 366.485 477.572 365.887C477.169 365.154 474.43 365.731 475.586 366.856C475.969 368.251 474.375 367.554 474.097 368.307C473.731 369.145 474.377 370.284 474.507 371.605C473.884 372.533 473.218 372.056 472.522 372.573C472.492 373.567 472.559 374.144 472.436 375.389C472.216 377.051 471.257 377.824 473.868 378.657C473.002 379.179 472.253 378.622 471.47 379.224C471.264 380.389 471.745 381.368 471.88 382.523C473.335 382.231 471.848 380.786 471.935 380.7C472.992 379.511 473.851 382.051 475.821 381.579C476.312 382.227 475.358 382.834 474.827 383.512C475.673 383.652 476.462 382.884 477.195 383.938C475.535 385.394 477.28 386.75 474.599 388.235C476.549 388.426 477.568 391.293 478.429 390.936C478.915 391.749 477.615 392.532 476.909 393.381C476.181 392.161 475.299 393.18 474.511 393.948C475.274 394.008 476.131 393.817 476.909 393.381C477.56 394.355 478.169 393.923 478.782 393.326C479.19 393.893 478.148 394.586 478.727 395.148C479.222 395.63 478.444 396.066 478.259 396.568C481.025 397.894 479.438 394.134 482.29 392.643C484.215 393.662 482.988 394.857 483.721 395.911C487.57 395.219 487.9 401.167 490.856 401.825C488.065 401.328 490.153 405.404 487.877 404.726C487.549 407.136 487.146 406.403 485.806 408.511C479.673 403.23 475.587 397.723 470.222 392.336C469.306 394.515 471.882 396.508 473.028 397.964C474.908 400.474 478.586 405.413 481.039 408.651C481.855 409.786 482.434 410.348 483.818 412.376C484.96 413.998 485.425 415.474 486.654 417.01C487.31 417.818 488.312 418.451 489.05 419.339C491.917 422.979 494.981 428.516 497.91 432.898C498.969 434.439 500.456 435.885 501.68 437.587C503.147 439.695 504.424 442.472 505.891 444.58C507.115 446.282 508.447 447.236 509.661 449.269C509.904 449.675 509.631 450.263 509.631 450.263C510.447 451.397 511.959 452.015 512.44 452.994C512.6 453.32 512.302 454.735 512.384 454.816C512.71 455.303 515.797 457.281 515.689 458.029C515.566 459.274 516.427 458.917 517.559 460.87C517.724 461.031 517.121 461.297 517.529 461.864C517.694 462.025 517.947 462.1 518.025 462.346C518.102 462.592 517.994 463.34 517.994 463.34C519.291 465.453 521.537 467.125 521.765 468.029C521.687 467.783 519.867 468.912 520.275 469.479C520.941 469.956 521.049 469.208 520.801 468.967C522.023 467.938 523.129 470.719 523.197 471.297C527.547 479.278 531.986 487.175 534.634 495.207C533.608 495.403 532.659 495.844 531.597 497.199C531.292 496.05 532.514 495.021 533.23 493.841C531.99 492.637 530.328 491.361 530.451 490.116C529.785 489.64 529.161 490.568 528.465 491.085C527.975 490.438 527.552 490.367 527.031 490.714C525.551 491.833 526.708 492.957 527.441 494.012C528.438 494.81 529.437 492.712 530.366 492.933C530.851 493.746 529.552 494.529 528.846 495.377C528.325 495.723 528.573 495.964 528.816 496.371C528.59 498.198 529.865 498.244 529.752 499.157C530.913 500.116 532.02 497.27 533.227 496.738C534.694 498.846 531.795 499.097 530.743 500.121C530.13 500.718 529.386 499.995 528.87 500.176C527.839 500.537 527.16 503.288 525.946 501.255C524.374 502.625 522.456 504.171 520.894 505.21C519.852 505.903 518.63 506.932 517.444 506.802C516.645 507.901 519.554 507.319 516.863 509.136C516.044 510.898 517.098 512.604 516.279 514.366C515.49 515.134 514.561 514.913 513.88 514.933C513.199 514.953 512.529 514.642 512.008 514.988C510.776 516.349 513.535 515.109 513.908 516.836C511.499 517.734 512.095 520.53 510.786 521.645C509.121 523.266 507.155 523.572 504.854 523.723C503.973 524.741 506.074 525.59 504.769 526.539C503.031 527.748 501.474 528.622 500.738 530.464C499.724 533.059 501.223 536.904 501.386 539.961C499.881 541.909 498.416 542.531 496.859 543.405C495.61 542.531 495.129 541.552 494.989 540.563C493.116 540.618 493.68 541.678 492.448 543.038C491.597 543.063 490.863 542.009 490.079 542.611C488.83 541.738 488.349 540.759 488.209 539.77L485.814 537.44C486.51 536.923 487.078 537.817 487.744 538.294C489.917 539.554 489.428 541.637 491.048 541.507C491.574 540.995 490.821 540.603 490.665 540.111C491.434 540.006 492.811 539.469 492.155 538.661C493.47 537.381 494.421 539.67 496.041 539.539C496.381 539.529 496.654 538.942 497.062 539.509C497.092 538.515 497.205 537.602 497.147 536.693C498.452 535.745 498.993 534.736 499.193 533.737C497.779 532.703 498.044 535.177 497.178 535.699C497.002 535.87 495.65 535.579 495.305 535.754C494.186 536.201 492.443 537.576 490.894 535.388C491.965 533.701 492.854 535.247 493.818 534.309C492.816 533.676 493.26 533.084 493.873 532.486C492.624 531.613 491.259 534.549 489.957 532.602C490.213 529.78 493.172 533.169 494.867 530.554C494.822 532.045 496.417 532.743 497.789 532.371C498.5 531.357 495.523 531.362 497.874 529.555C498.38 529.706 498.753 531.433 498.753 531.433C500.237 530.148 496.144 527.703 499.889 527.592C499.213 527.447 498.625 527.216 498.017 527.648C497.909 528.396 497.719 529.063 497.053 528.586C495.763 529.038 494.346 530.9 493.165 530.604C490.986 529.509 494.992 526.412 495.676 529.123C496.587 527.11 493.508 527.697 492.754 527.306C491.795 528.079 492.281 528.892 491.234 529.75C490.418 528.616 489.645 528.887 488.808 528.415C487.344 529.037 488.768 529.74 488.753 530.237C488.738 530.734 487.449 531.186 488.285 531.658C486.748 531.868 485.381 532.074 483.871 534.187C481.946 533.168 480 532.812 478.055 532.455C474.755 534.704 470.98 535.808 469.084 539.422C468.621 540.677 470.371 541.867 467.947 543.262C467.071 544.116 466.317 543.724 465.549 543.829C464.95 543.93 464.177 544.201 463.676 543.884C462.712 544.823 464.745 545.094 464.585 544.768C464.895 545.752 463.868 551.575 461.05 549.175C461.843 548.242 462.679 548.713 463.561 547.694C461.605 547.669 462.184 548.231 462.156 546.329C461.743 545.927 460.011 546.971 459.645 547.81C459.552 548.061 461.045 549.341 459.59 549.632C458.343 551.489 457.324 548.623 456.14 551.223C455.604 552.066 456.858 552.774 457.514 553.582C459.918 552.85 456.693 552.613 457.569 551.76C458.183 551.163 458.894 550.149 460.464 551.675C458.511 554.381 454.92 554.983 454.562 552.759C453.346 553.622 453.068 554.375 453.981 555.093C452.069 556.473 451.946 557.718 450.972 558.988C449.147 560.283 453.11 561.408 450.857 562.798C449.447 561.598 448.24 562.13 450.474 561.403C449.517 559.279 448.478 562.703 447.609 560.494C444.768 561.653 444.772 567.115 442.144 564.048C442.036 564.796 441.846 565.463 441.18 564.986C439.68 566.768 444.9 565.704 442.116 567.772C438.962 565.217 435.624 565.894 432.5 562.345C434.155 561.055 435.747 564.65 437.294 564.108C437.928 562.848 436.468 563.304 435.89 562.742C435.973 562.822 436.25 562.069 435.92 561.748C435.507 561.347 435.419 561.432 434.899 561.778C434.408 561.131 435.362 560.523 435.893 559.846C435.49 559.113 434.768 560.458 434.433 560.302C433.504 560.081 433.642 558.34 433.992 557.998C432.635 557.873 430.598 557.767 430.658 555.779C429.393 555.403 428.026 555.608 426.772 554.9C425.881 556.251 428.129 555.026 427.651 556.778C425.708 559.152 425.798 556.17 424.757 556.863C423.267 558.314 425.63 558.906 427.152 559.192C428.675 559.479 427.643 559.84 428.557 560.558C428.474 560.478 429.248 560.207 429.578 560.528C431.401 562.129 430.129 559.188 431.947 560.955C431.819 562.365 431.148 562.054 429.961 561.923C429.708 561.848 429.31 560.95 429.053 561.04C428.882 561.045 427.676 561.577 427.593 561.497C425.24 560.573 422.543 556.928 420.458 555.583C419.457 554.95 417.759 554.835 417.098 554.192C415.606 552.912 414.67 550.126 411.924 548.138C410.592 547.184 408.186 545.186 405.697 543.108C403.792 541.426 397.351 537.891 397.714 534.322C397.238 533.178 395.769 533.966 394.85 533.413C392.677 532.153 391.55 530.035 391.518 528.298C386.145 525.973 382.473 520.868 377.749 516.787C376.917 516.149 376.572 516.325 375.818 515.933C374.9 515.381 374.424 514.236 373.423 513.604C371.089 512.017 368.814 511.34 367.254 509.482C366.35 508.433 366.23 506.781 365.409 505.812C364.505 504.763 363.586 504.211 362.6 503.082C361.944 502.273 362.212 501.852 361.721 501.204C360.9 500.235 357.545 498.679 359.381 497.052C361.509 499.803 363.922 504.367 366.981 504.442C367.532 503.102 367.995 501.847 369.052 500.657C368.386 500.18 367.763 501.109 367.067 501.626C367.092 500.798 366.431 500.155 365.692 499.267C365.362 498.945 364.583 499.382 364.258 498.895C364.092 498.734 364.871 498.298 364.288 497.901C363.622 497.424 362.833 498.192 362.415 497.956C361.827 497.725 361.599 496.822 361.011 496.591C359.834 496.129 358.224 495.928 357.125 495.712C355.958 494.919 354.136 493.317 351.92 490.652C350.278 488.714 350.1 486.154 346.688 483.689C345.439 482.815 342.219 482.414 343.414 479.482C342.83 479.085 342.119 480.099 341.541 479.537C337.147 475.777 334.218 471.394 330.636 468.934L332.651 466.972C331.655 466.174 330.656 468.272 329.757 467.057C329.214 465.335 327.274 464.813 325.957 463.362C325.213 462.639 325.569 462.132 325.078 461.485C323.611 459.376 321.185 458.041 318.852 456.454C319.899 455.596 318.972 452.479 320.485 453.096C322.064 454.291 322.049 454.788 320.429 454.918C321.478 456.791 322.735 454.602 323.819 455.315C325.652 456.585 325.699 457.825 326.598 459.04C326.571 457.138 326.946 455.968 324.753 455.371C325.892 454.261 325.417 453.117 327.237 451.987C325.807 451.45 324.195 454.146 322.853 453.523C320.412 452.685 324.27 451.661 322.938 450.707C322.21 449.487 321.329 450.506 320.54 451.274C319.533 450.807 321.689 449.833 321.534 449.342C320.938 446.545 317.623 449.291 316.244 447.097C316.136 447.845 315.946 448.513 315.28 448.036C313.8 449.155 317.182 452.614 318.554 452.243C319.045 452.89 318.086 453.663 317.59 453.181C314.586 451.284 313.495 448.006 311.011 445.762C310.015 444.963 308.818 445.164 307.652 444.371C305.984 443.261 303.841 441.007 302.447 439.311C301.383 437.935 301.025 435.711 298.121 436.128C297.227 434.747 296.674 433.357 294.846 431.921C295.182 432.077 296.141 431.304 296.306 431.464C296.977 431.775 296.859 432.855 296.689 432.86C297.448 433.086 298.411 432.147 299.057 433.287L298.093 434.225C298.496 434.958 299.218 433.613 299.553 433.769C300.229 433.914 300.106 435.159 299.936 435.164C301.035 435.38 300.204 434.742 300.462 434.652C301.751 434.2 302.144 435.265 303.822 436.043C303.198 436.971 302.532 436.494 301.836 437.011C303.023 437.142 304.009 438.272 305.226 437.408C306.047 438.377 303.891 439.351 305.141 440.224C306.182 439.532 306.115 438.954 306.135 438.292C306.057 438.046 306.005 436.972 305.752 436.896C305.669 436.816 304.044 437.112 304.292 437.353C303.807 436.54 304.911 436.59 304.76 435.932C304.533 435.029 302.763 434.502 302.365 433.603C302.818 432.679 302.931 431.766 303.471 430.757C302.976 430.275 302.527 431.033 302.012 431.214C302.037 430.385 300.007 427.218 298.707 428.001C297.628 427.122 300.212 426.053 300.753 425.044C301.672 425.596 301.141 426.274 301.631 426.922C302.395 426.982 303.251 426.791 304.03 426.355C305.087 425.165 302.26 425.827 301.634 424.025C303.975 422.549 301.92 420.21 304.644 420.13C305.447 418.865 304.952 418.383 303.765 418.253C305.064 417.469 304.068 416.671 303.325 415.948C302.488 415.476 301.685 416.741 300.813 417.429C302.433 417.299 302.015 417.063 303.735 419.246L300.755 422.148C299.424 421.194 300.64 420.331 298.885 419.306C297.844 419.999 298.252 420.566 298.83 421.129C298.047 421.731 297.251 419.934 296.462 420.702C296.114 423.774 299.982 422.419 301.284 424.366C298.69 425.767 296.837 425.159 295.38 428.347L297.776 430.676C296.646 431.454 295.628 428.588 294.356 431.273C290.916 426.906 282.339 423.683 282.542 419.787C282.542 419.787 282.757 418.291 282.159 418.392L281.633 418.904C280.967 418.427 281.333 417.588 281.25 417.508C280.336 416.79 279.821 416.971 278.824 416.173C277.993 415.535 278.524 414.857 277.945 414.295C276.706 413.09 274.761 412.734 273.619 411.112C275.495 408.161 277.147 415.394 278.94 412.363C280.281 412.985 279.653 414.079 280.314 414.722C280.727 415.124 281.583 414.933 282.244 415.575C283.07 416.379 283.16 419.024 285.053 418.306C285.539 419.12 284.239 419.903 283.533 420.751C287.306 422.543 286.652 424.466 290.255 426.263C290.838 426.66 291.549 425.646 292.128 426.208C292.664 425.365 292.09 424.637 292.709 423.874C292.213 423.392 291.765 424.15 291.249 424.331C290.521 423.111 291.046 422.599 292.243 422.398C291.262 421.103 290.375 422.288 289.322 420.581C290.09 420.475 290.956 419.953 291.833 419.1C292.909 417.248 289.95 419.486 289.407 417.765C289.938 417.087 289.019 416.535 288.528 415.887C289.998 415.099 288.486 414.482 288.558 414.893L288.613 413.071C289.67 411.881 290.476 413.347 288.23 411.675L290.772 409.201C291.483 408.187 289.513 408.659 288.842 408.347C288.253 408.116 288.153 405.802 286.911 407.494C284.886 409.788 287.863 409.783 287.817 411.274C286.308 413.387 282.913 413.156 285.221 415.571C283.839 416.273 282.64 413.743 281.335 414.692C280.524 413.392 282.702 414.486 282.329 412.759C281.348 411.464 280.462 412.649 279.408 410.942C280.898 409.491 282.327 410.029 283.792 409.406C284.616 407.479 283.396 405.611 285.923 403.634C284.08 402.695 284.593 405.411 283.381 406.108C282.886 405.626 282.437 406.384 281.922 406.565C281.431 405.917 281.008 405.847 280.487 406.193C279.083 404.828 282.135 402.338 283.497 402.298C282.107 400.436 279.511 404.732 279.611 401.419C278.399 402.117 277.205 405.049 276.161 403.01C277.491 401.234 279.163 402.177 279.141 400.109C277.406 398.422 275.626 398.227 273.881 396.871C274.83 396.429 275.768 396.319 276.805 395.792C276.237 394.898 274.617 395.029 273.941 394.883C273.095 394.743 271.685 393.543 271.047 394.968C270.045 394.336 271.322 391.485 272.536 393.518C273.691 391.911 273.483 390.345 274.637 388.739C273.961 388.593 273.368 388.528 272.707 387.885C272.729 389.954 273.581 389.929 270.636 391.67C269.77 392.192 269.424 392.368 268.651 392.639C266.318 391.053 267.044 389.542 264.881 387.95C263.907 389.22 263.186 390.565 263.744 391.79C260.922 392.287 264.18 388.633 261.403 387.639C261.924 387.292 262.425 387.609 262.863 387.182C261.035 385.746 260.97 387.9 259.941 385.365C260.467 384.853 260.87 385.586 261.376 385.736C261.902 385.224 261.148 384.833 260.993 384.341C262.332 382.232 264.005 383.176 263.972 381.439C263.074 380.225 261.987 382.408 261.078 381.525C258.419 379.451 257.996 379.381 255.873 376.464C254.809 375.089 253.482 379.596 252.453 377.061C253.835 376.359 254.712 375.505 255.433 374.16C256.247 372.564 250.413 374.225 252.624 371.429C253.958 369.487 254.404 371.625 254.554 372.283C254.827 371.695 255.771 371.419 256.044 370.832C255.951 371.083 256.022 368.764 256.099 369.01C255.293 367.544 251.71 370.711 252.214 368.131C251.255 368.904 251.74 369.717 250.694 370.576C249.217 368.799 251.65 367.072 251.277 365.345C252.617 363.237 254.289 364.181 254.257 362.444C252.234 361.841 252.447 363.242 249.843 364.973C247.71 362.388 247.312 361.49 244.638 359.913C243.602 360.44 245.702 361.289 245.517 361.791C245.053 363.046 243.757 360.932 242.595 359.973C241.967 361.068 242.152 366.193 239.999 364.27C239.891 365.018 240.036 365.841 240.439 366.574C239.052 367.442 236.04 368.607 237.43 370.469C234.262 371.142 237.643 366.243 239.5 366.685C240.031 366.007 239.117 365.289 238.591 365.801C237.673 365.249 238.204 364.571 237.713 363.924C235.47 364.983 238.932 365.791 236.606 366.77C236.661 364.947 235.517 366.222 234.21 364.44C235.675 363.818 237.19 361.539 238.652 363.813C238.925 363.226 237.901 360.525 237.277 361.454C236.787 360.806 237.741 360.199 238.271 359.521C237.595 359.376 237.002 359.31 236.341 358.668C236.697 358.161 237.495 357.061 237.335 356.735C237.025 355.751 235.983 356.444 235.901 356.364C234.827 355.319 236.564 354.11 235.49 353.065C233.73 352.207 234.574 355.244 232.511 355.967C232.22 354.32 232.606 352.819 233.59 351.218C232.506 350.505 231.249 352.694 230.2 350.821C230.824 349.893 231.49 350.37 232.186 349.853C230.028 348.095 227.662 350.399 225.348 348.15C226.881 348.105 227.694 346.509 227.394 345.194C226.558 344.722 225.754 345.987 224.883 346.675C223.917 344.882 223.834 344.802 222.074 343.944C222.712 342.518 222.159 341.127 223.649 339.677C221.776 339.732 222.272 340.214 221.223 338.341C219.949 338.296 218.552 339.496 217.277 339.45C217.142 338.296 217.683 337.287 217.888 336.122C217.305 335.726 216.594 336.74 216.016 336.177C215.35 335.701 214.726 336.629 214.03 337.146C213.024 336.679 214.431 335.148 214.115 334.33C214.121 334.164 212.598 333.878 212.185 333.477C211.772 333.075 212.143 332.071 211.307 331.599C215.19 329.747 210.39 328.15 212.912 326.338C211.915 325.54 210.916 327.638 209.987 327.417C208.748 326.213 207.086 324.937 207.209 323.693C206.25 324.466 206.735 325.279 205.689 326.137C205.714 325.309 204.63 324.596 205.248 323.833C205.444 323 204.7 322.277 205.829 321.499C206.074 324.636 209.46 319.571 207.875 318.542C207.307 317.649 206.483 319.576 205.889 319.511C205.549 319.521 206.811 317.167 204.515 317.152C205.509 315.219 207.695 313.251 208.601 311.404C207.367 310.034 207.194 312.935 205.564 313.397C204.62 313.673 207.28 310.119 204.656 312.513C203.867 313.281 204.27 314.014 203.662 314.446C203.662 314.446 202.743 313.894 202.64 314.476C202.522 315.555 203.379 315.364 204.54 316.323C203.947 316.258 201.546 319.721 202.908 319.681C204.27 319.641 202.99 319.762 202.878 320.675C202.765 321.589 203.07 322.738 202.792 323.491C202.7 323.742 203.015 324.561 202.324 324.912C202.236 324.997 201.493 324.274 201.303 324.942C199.372 324.089 201.616 323.03 202.409 322.096C201.155 321.388 199.793 321.428 198.494 322.211C198.369 320.725 195.933 319.721 195.715 318.486C195.647 317.909 197.385 316.699 196.296 316.152C195.197 315.936 194.04 314.812 192.876 316.749C191.544 315.795 192.761 314.932 191.006 313.908C193.347 312.432 195.518 310.961 194.654 308.587C193.054 308.055 192.954 311.368 190.623 312.512C189.797 311.709 189.734 310.966 190.182 310.208C190.791 309.776 191.442 310.75 192.055 310.153C191.016 307.949 189.093 309.661 188.17 309.274C187.917 309.199 188.034 308.12 187.787 307.879C187.208 307.317 185.991 308.18 185.418 307.452C184.69 306.232 181.665 304.997 182.639 303.727C184.835 301.428 184.802 305.318 185.035 306.056C185.944 306.94 187.016 305.253 187.899 306.965C187.346 305.575 191.307 303.969 190.496 302.668C191.202 301.82 191.745 303.542 192.426 303.522C193.277 303.497 194.374 300.982 195.35 302.443C196.272 300.099 197.361 300.646 199.381 298.518C197.982 296.986 196.415 298.191 194.94 299.145C193.891 297.272 197.949 295.25 198.092 293.342C196.668 292.639 195.035 295.997 193.651 293.969C192.847 295.234 194.091 296.273 192.131 296.414C191.64 295.766 192.594 295.159 193.125 294.481C191.916 292.282 190.576 294.391 189.352 292.689C188.982 293.693 189.38 294.591 190.288 295.475C189.057 296.835 188.353 294.787 187.424 294.566C186.748 294.421 186.135 295.018 185.552 294.621C183.802 293.431 184.776 292.161 182.773 290.896C182.097 290.751 181.508 290.52 180.9 290.951C180.212 288.406 183.444 291.208 184.32 290.354C185.196 289.501 185.304 288.753 184.901 288.02C184.09 286.72 183.276 288.316 182.533 287.593C182.042 286.946 181.584 288.035 181.073 288.05C180.732 288.06 179.896 287.588 179.638 287.678C178.865 287.949 177.726 289.059 176.601 289.671C176.256 289.847 174.689 291.051 174.09 291.152C173.404 291.337 174.038 290.078 174.12 290.158C173.877 289.751 172.15 290.63 171.722 290.725C170.745 289.264 175.723 287.794 172.363 286.403C173.61 284.546 174.649 286.749 175.813 284.812C175.162 283.838 174.554 284.27 173.94 284.867C173.445 284.385 174.223 283.948 174.409 283.446C173.562 283.306 172.881 283.326 172.04 283.02C171.787 282.944 171.389 282.046 171.131 282.136C170.961 282.141 169.156 282.773 169.259 282.191L169.785 281.679C168.185 281.147 167.071 281.428 165.486 280.399C165.464 278.331 167.136 279.274 168.465 277.497C169.384 278.05 168.853 278.727 169.344 279.375C171.622 277.156 168.883 277.733 168.934 276.077C169.402 274.656 170.211 273.226 169.575 271.755C169.079 271.273 168.631 272.031 168.115 272.212C166.949 271.418 167.227 270.665 166.741 269.852C165.574 269.059 164.518 270.249 163.321 270.449C162.83 269.802 164.15 268.356 164.811 268.999C166.378 267.794 163.514 266.885 164.4 265.701C163.657 264.978 162.846 263.678 161.974 264.365C160.92 262.658 163.439 263.743 163.99 262.403C163.179 261.102 162.365 262.699 161.621 261.976C160.838 262.578 160.042 260.781 159.253 261.549C159.045 259.983 159.859 258.386 158.46 256.855C155.272 258.19 159.659 259.385 157.323 260.695C156.048 260.65 156.404 260.143 155.918 259.33C154.158 258.471 156.194 261.473 153.873 262.286C152.463 261.087 153.695 259.726 155.01 258.446C153.75 257.904 152.669 259.922 151.973 260.439C152.06 260.354 150.966 259.972 150.951 260.469C150.936 260.966 151.009 261.378 150.483 261.89C149.977 261.739 149.672 260.589 149.078 260.524C147.726 260.233 146.134 262.266 144.667 260.157C146.182 257.878 147.684 258.827 149.051 258.622L150.628 257.086C152.211 255.384 148.17 254.013 150.774 252.282C149.792 250.987 148.906 252.171 147.852 250.464C147.028 252.392 148.248 254.259 145.721 256.237C144.049 255.293 145.694 254.334 144.785 253.451C142.547 254.344 143.037 254.992 141.28 256.864C140.784 256.382 141.563 255.946 141.748 255.444C141.701 254.204 139.189 255.684 139.38 255.017C139.58 254.018 139.225 254.525 138.358 255.047C135.917 254.208 139.775 253.185 138.444 252.231C137.52 251.844 138.088 252.738 137.48 253.169C136.959 253.516 136.458 253.199 136.02 253.626C135.487 251.573 138.999 250.725 139.908 251.608C141.245 252.397 139.605 253.19 140.349 253.912C142.562 253.847 142.209 251.458 142.419 250.128C143.466 249.269 144.415 248.828 145.344 249.049C145.88 248.205 145.306 247.477 145.925 246.714C144.69 245.344 143.366 246.955 142.009 246.83C140.244 246.137 141.268 243.21 139.2 244.099C139.29 241.117 143.421 245.133 145.016 245.831C148.378 244.325 146.205 243.065 149.515 240.485C150.564 242.357 149.24 243.969 151.856 244.637C150.041 245.6 151.202 246.559 149.81 247.593C152.499 248.673 152.098 250.67 154.632 251.258C157.323 249.441 153.035 247.829 153.343 246.082C154.259 243.904 154.91 244.878 156.848 242.669C158.107 243.211 157.046 244.567 157.289 244.973C157.687 245.872 159.627 246.394 158.663 247.333C160.408 248.688 162.298 245.24 164.129 243.779C162.827 241.831 159.101 246.906 162.198 242.925C160.191 241.826 158.12 239.984 155.914 242.614C154.593 241.329 157.124 239.185 158.398 239.231C158.506 238.483 158.696 237.815 159.362 238.292C159.738 237.122 159.257 236.143 157.93 235.024C155.687 236.083 159.149 236.891 156.823 237.87C155.299 234.853 153.451 239.707 151.999 237.102C152.905 235.255 156.16 234.497 155.504 233.689C156.861 233.814 158.151 233.362 159.39 234.567C159.973 234.964 160.684 233.95 161.263 234.512C160.086 234.05 160.762 234.196 161.025 233.94Z" fill="#17365F"/>
</svg>
